<?xml version="1.0"?><svg width="793.7007874015749" height="1122.5196850393702" xmlns="http://www.w3.org/2000/svg" xmlns:xlink="http://www.w3.org/1999/xlink">
 <title>12 trees</title>

 <g>
  <title>Layer 1</title>
  <g id="svg_1" transform="matrix(1.42929 0 0 1.42929 -159.947 -161.466)">
   <path id="svg_2" fill="#000000" fill-opacity="0.75" fill-rule="nonzero" stroke-width="1.0000000pt" d="m447.087585,274.693665l-4.53125,0.15625c0.651001,8.033752 1.764557,15.975739 3,23.9375c0.548401,3.496368 1.163849,7.095428 1.6875,10.6875c-4.14151,-7.430145 -9.467896,-14.249817 -16.53125,-20.25c-5.72818,-4.316376 -11.682526,-7.856628 -18.15625,-10.9375l-5.59375,5.4375c5.801605,2.670776 11.150879,5.766602 16.3125,9.53125c6.696991,5.529266 11.784668,11.899902 15.71875,18.875c-7.137207,-3.938324 -15.218414,-6.857971 -22.53125,-9.5625c-4.188629,-1.424622 -8.354431,-2.717499 -12.625,-3.875l-1.8125,3.0625c4.085022,1.100952 8.063782,2.337952 12.0625,3.71875c8.1362,3.065308 16.042511,6.622864 23.5625,11c0.392792,0.228607 3.56543,3.070618 5.875,5.125c1.563263,4.017944 2.819794,8.226807 3.8125,12.5625c-4.124237,-1.578094 -13.204895,-4.866272 -16.71875,-5.71875c-3.568512,-0.730652 -7.066071,-1.262451 -10.6875,-1.65625l-0.8125,3.375c3.308533,0.359528 6.492371,0.850555 9.75,1.53125c6.696686,1.653259 12.89856,4.685791 19.34375,6.75c0.271149,1.450134 0.561005,2.895294 0.78125,4.375c0.56424,4.669098 1.033203,9.630066 1.125,14.59375l-1.15625,4.53125c-4.953003,-2.064819 -8.836243,-3.664917 -11.4375,-4.75c-12.997894,-5.371887 -26.100006,-10.102142 -39.84375,-13.1875l-3,6.15625c10.873657,2.354065 21.229858,6.082031 31.46875,10.28125c-4.573853,0.282043 -9.120239,0.770386 -13.71875,1.875c-1.074738,0.313477 -2.144012,0.624023 -3.21875,0.9375l2.03125,3.15625c0.975647,-0.281067 1.930603,-0.562683 2.90625,-0.84375c6.804749,-1.630219 13.735199,-1.883209 20.6875,-1.75c5.437225,2.026367 10.831818,3.429535 12.6875,8.125c-0.288635,7.420593 0.269836,13.036743 0.59375,20.40625c0.011688,0.590515 0.019592,3.154572 0.03125,5.71875c-4.231537,-3.331268 -12.112213,-8.940399 -14.375,-10.375c-4.666321,-2.78241 -9.360687,-5.411835 -14.1875,-7.90625l-2.9375,2.59375c4.669647,2.440613 9.21698,5.013153 13.71875,7.75c5.484924,3.56781 13.901459,9.302307 17.625,17.25c-1.180786,21.361053 -0.384949,33.660614 -0.75,56.375c-0.177216,9.159271 0.590851,19.250427 -1.15625,28.3125l11.53125,0c-1.74707,-9.062073 -1.010284,-19.153229 -1.1875,-28.3125c-0.387939,-24.139771 -1.743896,-35.975891 0.3125,-60.0625c0.003174,-0.030823 -0.003174,-0.062927 0,-0.09375c4.813446,-7.332703 10.753601,-15.6987 13.75,-19.25c6.444397,-6.936157 16.24826,-14.462341 24.406219,-19.3125l-6.59375,-5c-4.030151,2.427948 -7.80603,5.120087 -11.406219,8.03125c1.702118,-4.040985 3.572662,-8.542206 4.124969,-10.15625l-3.562469,0.59375c-1.12619,3.011322 -4.223999,9.62442 -6.65625,15.125c-2.083313,1.942444 -4.239014,3.783936 -6.21875,5.875c-2.818726,3.230835 -3.12149,3.654755 -5.5625,6.53125c1.825836,-12.031311 4.389099,-23.930481 8.75,-35.34375c0.257751,-0.657166 0.573364,-1.285522 0.84375,-1.9375c3.912323,-1.899292 7.690765,-4.324341 11.093719,-6.28125c3.60321,-1.995697 7.236877,-3.82428 11,-5.5l-2.78125,-2.84375c-3.944519,1.737823 -7.774719,3.600067 -11.562469,5.65625c-1.416534,0.79483 -3.33432,2.009827 -5.125,3.125c4.049713,-8.41095 9.073578,-16.378815 14.624969,-23.875c7.37561,-0.190918 14.62439,0.176056 21.84375,2l1.8125,-3.21875c-6.986694,-1.777191 -13.839417,-2.14801 -20.84375,-2.4375c4.680786,-5.899078 9.706177,-11.512115 14.71875,-17.125l-8.625,-3.5c-5.692932,6.382782 -11.473083,12.715576 -16.6875,19.5c-3.01001,4.015289 -5.786987,8.162109 -8.437469,12.40625c-0.087006,-5.591339 -0.074951,-11.188995 -0.125,-16.71875c-0.06485,-8.408051 -0.379852,-16.804016 -1.03125,-25.1875l-4.5,0.15625c0.656738,8.327667 0.939453,16.678162 0.875,25.03125c-0.077393,8.553497 0.221252,17.287689 -0.46875,25.84375c-2.0383,3.874695 -3.918091,7.845856 -5.53125,11.9375c-0.153381,-1.844574 -0.306885,-3.681549 -0.59375,-5.5c-1.129425,-6.248871 -2.641663,-12.240234 -4.5625,-17.96875c-0.853821,-8.682892 -1.938385,-17.183777 -3.4375,-25.8125c-1.34259,-7.898438 -2.517517,-15.763031 -3.1875,-23.75z"/>
   <path id="svg_3" fill="#38a600" fill-rule="evenodd" stroke-width="1.0000000pt" d="m419.812653,352.790894a14.19367,14.19367 0 1 0 -28.387329,0a14.19367,14.19367 0 1 0 28.387329,0z"/>
   <use id="svg_4" y="-47.372291" xlink:href="#path2432" x="182.068653" width="744.09448" height="1052.3622"/>
   <use id="svg_5" y="46.305909" xlink:href="#path2432" x="130.971447" width="744.09448" height="1052.3622"/>
   <path id="svg_6" fill="#2c8400" fill-rule="evenodd" stroke-width="1.0000000pt" d="m434.006256,281.822571a14.19367,14.19367 0 1 0 -28.387329,0a14.19367,14.19367 0 1 0 28.387329,0z"/>
   <use id="svg_7" y="32.112237" xlink:href="#path2463" x="145.165127" width="744.09448" height="1052.3622"/>
   <use id="svg_8" y="105.919305" xlink:href="#path2463" x="130.971455" width="744.09448" height="1052.3622"/>
   <path id="svg_9" fill="#43c800" fill-rule="evenodd" stroke-width="1.0000000pt" d="m422.651367,301.693695a14.19367,14.19367 0 1 0 -28.387329,0a14.19367,14.19367 0 1 0 28.387329,0z"/>
   <use id="svg_10" y="87.224015" xlink:href="#path2466" x="105.422855" width="744.09448" height="1052.3622"/>
   <use id="svg_11" y="34.950978" xlink:href="#path2466" x="156.520054" width="744.09448" height="1052.3622"/>
   <use id="svg_12" y="83.20945" xlink:href="#path2463" x="85.551719" width="744.09448" height="1052.3622"/>
   <use id="svg_13" y="26.434777" xlink:href="#path2432" x="130.971455" width="744.09448" height="1052.3622"/>
   <use id="svg_14" y="49.144639" xlink:href="#path2466" x="119.616516" width="744.09448" height="1052.3622"/>
   <use id="svg_15" y="49.144639" xlink:href="#path2463" x="85.551719" width="744.09448" height="1052.3622"/>
   <use id="svg_16" y="15.079838" xlink:href="#path2432" x="162.197529" width="744.09448" height="1052.3622"/>
   <use id="svg_17" y="-13.307492" xlink:href="#path2466" x="119.616516" width="744.09448" height="1052.3622"/>
   <use id="svg_18" y="83.209435" xlink:href="#path2463" x="125.293987" width="744.09448" height="1052.3622"/>
   <use id="svg_19" y="-10.468752" xlink:href="#path2432" x="139.487644" width="744.09448" height="1052.3622"/>
   <use id="svg_20" y="17.918578" xlink:href="#path2432" x="117.953636" width="744.09448" height="1052.3622"/>
   <path id="svg_21" fill="#47d900" fill-rule="evenodd" stroke-width="1.0000000pt" d="m445.361176,301.693695a14.19367,14.19367 0 1 0 -28.387329,0a14.19367,14.19367 0 1 0 28.387329,0z"/>
   <use id="svg_22" y="20.757308" xlink:href="#path2479" x="148.003857" width="744.09448" height="1052.3622"/>
   <use id="svg_23" y="3.724908" xlink:href="#path2463" x="130.971455" width="744.09448" height="1052.3622"/>
   <use id="svg_24" y="29.273518" xlink:href="#path2466" x="113.939056" width="744.09448" height="1052.3622"/>
   <use id="svg_25" y="-41.694824" xlink:href="#path2432" x="128.132717" width="744.09448" height="1052.3622"/>
   <use id="svg_26" y="23.596038" xlink:href="#path2466" x="136.648914" width="744.09448" height="1052.3622"/>
   <use id="svg_27" y="-1.952559" xlink:href="#path2479" x="119.616516" width="744.09448" height="1052.3622"/>
  </g>
  <g transform="matrix(1.42929 0 0 1.42929 -159.947 -161.466)" id="g2488">
   <path fill="#000000" fill-opacity="0.75" fill-rule="nonzero" stroke-width="1.0000000pt" id="path1745" d="m364.374573,270.96875l-4.53125,0.15625c0.651001,8.033752 1.764557,15.975739 3,23.9375c0.548401,3.496368 1.163849,7.095428 1.6875,10.6875c-4.14151,-7.430145 -9.467896,-14.249817 -16.53125,-20.25c-5.72818,-4.316376 -11.682526,-7.856628 -18.15625,-10.9375l-5.59375,5.4375c5.801605,2.670776 11.150879,5.766602 16.3125,9.53125c6.696991,5.529266 11.784668,11.899902 15.71875,18.875c-7.137207,-3.938324 -15.218414,-6.857971 -22.53125,-9.5625c-4.188629,-1.424622 -8.354431,-2.717499 -12.625,-3.875l-1.8125,3.0625c4.085022,1.100952 8.063782,2.337952 12.0625,3.71875c8.1362,3.065308 16.042511,6.622864 23.5625,11c0.392792,0.228607 3.56543,3.070618 5.875,5.125c1.563263,4.017944 2.819794,8.226807 3.8125,12.5625c-4.124237,-1.578094 -13.204895,-4.866272 -16.71875,-5.71875c-3.568512,-0.730652 -7.066071,-1.262451 -10.6875,-1.65625l-0.8125,3.375c3.308533,0.359528 6.492371,0.850555 9.75,1.53125c6.696686,1.653259 12.89856,4.685791 19.34375,6.75c0.271149,1.450134 0.561005,2.895294 0.78125,4.375c0.56424,4.669098 1.033203,9.630066 1.125,14.59375l-1.15625,4.53125c-4.953003,-2.064819 -8.836243,-3.664917 -11.4375,-4.75c-12.997894,-5.371887 -26.100006,-10.102142 -39.84375,-13.1875l-3,6.15625c10.873657,2.354065 21.229858,6.082031 31.46875,10.28125c-4.573853,0.282043 -9.120239,0.770386 -13.71875,1.875c-1.074738,0.313477 -2.144012,0.624023 -3.21875,0.9375l2.03125,3.15625c0.975647,-0.281067 1.930603,-0.562683 2.90625,-0.84375c6.804749,-1.630219 13.735199,-1.883209 20.6875,-1.75c5.437225,2.026367 10.831818,3.429535 12.6875,8.125c-0.288635,7.420593 0.269836,13.036743 0.59375,20.40625c0.011688,0.590515 0.019592,3.154572 0.03125,5.71875c-4.231537,-3.331268 -12.112213,-8.940399 -14.375,-10.375c-4.666321,-2.78241 -9.360687,-5.411835 -14.1875,-7.90625l-2.9375,2.59375c4.669647,2.440613 9.21698,5.013153 13.71875,7.75c5.484924,3.56781 13.901459,9.302307 17.625,17.25c-1.180786,21.361053 -0.384949,33.660614 -0.75,56.375c-0.177216,9.159271 0.590851,19.250427 -1.15625,28.3125l11.53125,0c-1.74707,-9.062073 -1.010284,-19.153229 -1.1875,-28.3125c-0.387939,-24.139771 -1.743896,-35.975891 0.3125,-60.0625c0.003174,-0.030823 -0.003174,-0.062927 0,-0.09375c4.813446,-7.332703 10.753601,-15.6987 13.75,-19.25c6.444397,-6.936157 16.248291,-14.462341 24.40625,-19.3125l-6.59375,-5c-4.030151,2.427948 -7.806061,5.120087 -11.40625,8.03125c1.702118,-4.040985 3.572693,-8.542206 4.125,-10.15625l-3.5625,0.59375c-1.12619,3.011322 -4.223999,9.62442 -6.65625,15.125c-2.083313,1.942444 -4.239014,3.783936 -6.21875,5.875c-2.818726,3.230835 -3.12149,3.654755 -5.5625,6.53125c1.825836,-12.031311 4.389099,-23.930481 8.75,-35.34375c0.257751,-0.657166 0.573364,-1.285522 0.84375,-1.9375c3.912323,-1.899292 7.690765,-4.324341 11.09375,-6.28125c3.60318,-1.995697 7.236847,-3.82428 11,-5.5l-2.78125,-2.84375c-3.944519,1.737823 -7.774719,3.600067 -11.5625,5.65625c-1.416534,0.79483 -3.33432,2.009827 -5.125,3.125c4.049713,-8.41095 9.073608,-16.378815 14.625,-23.875c7.37561,-0.190918 14.62439,0.176056 21.84375,2l1.8125,-3.21875c-6.986725,-1.777191 -13.839417,-2.14801 -20.84375,-2.4375c4.680786,-5.899078 9.706146,-11.512115 14.71875,-17.125l-8.625,-3.5c-5.692963,6.382782 -11.473083,12.715576 -16.6875,19.5c-3.01004,4.015289 -5.787018,8.162109 -8.4375,12.40625c-0.087006,-5.591339 -0.074951,-11.188995 -0.125,-16.71875c-0.06485,-8.408051 -0.379852,-16.804016 -1.03125,-25.1875l-4.5,0.15625c0.656738,8.327667 0.939453,16.678162 0.875,25.03125c-0.077393,8.553497 0.221252,17.287689 -0.46875,25.84375c-2.0383,3.874695 -3.918091,7.845856 -5.53125,11.9375c-0.153381,-1.844574 -0.306885,-3.681549 -0.59375,-5.5c-1.129425,-6.248871 -2.641663,-12.240234 -4.5625,-17.96875c-0.853821,-8.682892 -1.938385,-17.183777 -3.4375,-25.8125c-1.34259,-7.898438 -2.517517,-15.763031 -3.1875,-23.75z"/>
   <path fill="#38a600" fill-rule="evenodd" stroke-width="1.0000000pt" id="path2432" d="m337.09964,349.065979a14.193667,14.193667 0 1 0 -28.387329,0a14.193667,14.193667 0 1 0 28.387329,0z"/>
   <use y="-51.097198" xlink:href="#path2432" x="99.355667" width="744.09448" id="use2461" height="1052.3622"/>
   <use y="42.581001" xlink:href="#path2432" x="48.258461" width="744.09448" id="use2462" height="1052.3622"/>
   <path fill="#2c8400" fill-rule="evenodd" stroke-width="1.0000000pt" id="path2463" d="m351.293243,278.097656a14.193667,14.193667 0 1 0 -28.387329,0a14.193667,14.193667 0 1 0 28.387329,0z"/>
   <use y="28.387329" xlink:href="#path2463" x="62.452141" width="744.09448" id="use2464" height="1052.3622"/>
   <use y="102.194397" xlink:href="#path2463" x="48.258469" width="744.09448" id="use2465" height="1052.3622"/>
   <path fill="#43c800" fill-rule="evenodd" stroke-width="1.0000000pt" id="path2466" d="m339.938354,297.968781a14.193667,14.193667 0 1 0 -28.387329,0a14.193667,14.193667 0 1 0 28.387329,0z"/>
   <use y="83.499107" xlink:href="#path2466" x="22.709869" width="744.09448" id="use2467" height="1052.3622"/>
   <use y="31.22607" xlink:href="#path2466" x="73.807068" width="744.09448" id="use2468" height="1052.3622"/>
   <use y="79.484543" xlink:href="#path2463" x="2.838733" width="744.09448" id="use2470" height="1052.3622"/>
   <use y="22.709869" xlink:href="#path2432" x="48.258469" width="744.09448" id="use2471" height="1052.3622"/>
   <use y="45.419731" xlink:href="#path2466" x="36.90353" width="744.09448" id="use2472" height="1052.3622"/>
   <use y="45.419731" xlink:href="#path2463" x="2.838733" width="744.09448" id="use2473" height="1052.3622"/>
   <use y="11.35493" xlink:href="#path2432" x="79.484543" width="744.09448" id="use2474" height="1052.3622"/>
   <use y="-17.0324" xlink:href="#path2466" x="36.90353" width="744.09448" id="use2475" height="1052.3622"/>
   <use y="79.484528" xlink:href="#path2463" x="42.581001" width="744.09448" id="use2476" height="1052.3622"/>
   <use y="-14.19366" xlink:href="#path2432" x="56.774658" width="744.09448" id="use2477" height="1052.3622"/>
   <use y="14.19367" xlink:href="#path2432" x="35.24065" width="744.09448" id="use2478" height="1052.3622"/>
   <path fill="#47d900" fill-rule="evenodd" stroke-width="1.0000000pt" id="path2479" d="m362.648163,297.968781a14.193667,14.193667 0 1 0 -28.387329,0a14.193667,14.193667 0 1 0 28.387329,0z"/>
   <use y="17.0324" xlink:href="#path2479" x="65.290871" width="744.09448" id="use2481" height="1052.3622"/>
   <use y="0" xlink:href="#path2463" x="48.258469" width="744.09448" id="use2482" height="1052.3622"/>
   <use y="25.548611" xlink:href="#path2466" x="31.22607" width="744.09448" id="use2483" height="1052.3622"/>
   <use y="-45.419731" xlink:href="#path2432" x="45.419731" width="744.09448" id="use2484" height="1052.3622"/>
   <use y="19.87113" xlink:href="#path2466" x="53.935928" width="744.09448" id="use2485" height="1052.3622"/>
   <use y="-5.677467" xlink:href="#path2479" x="36.90353" width="744.09448" id="use2486" height="1052.3622"/>
  </g>
  <g id="svg_109" transform="matrix(1.42929 0 0 1.42929 -159.947 -161.466)">
   <path id="svg_110" fill="#000000" fill-opacity="0.75" fill-rule="nonzero" stroke-width="1.0000000pt" d="m476.472778,292.884491l-4.53125,0.15625c0.651001,8.033752 1.764557,15.975739 3,23.9375c0.548401,3.496368 1.163849,7.095428 1.6875,10.6875c-4.14151,-7.430145 -9.467896,-14.249817 -16.53125,-20.25c-5.72818,-4.316376 -11.682526,-7.856628 -18.15625,-10.9375l-5.59375,5.4375c5.801605,2.670776 11.150879,5.766602 16.3125,9.53125c6.696991,5.529266 11.784668,11.899902 15.71875,18.875c-7.137207,-3.938324 -15.218414,-6.857971 -22.53125,-9.5625c-4.188629,-1.424622 -8.354431,-2.717499 -12.625,-3.875l-1.8125,3.0625c4.085022,1.100952 8.063782,2.337952 12.0625,3.71875c8.1362,3.065308 16.042511,6.622864 23.5625,11c0.392792,0.228607 3.56543,3.070618 5.875,5.125c1.563263,4.017944 2.819794,8.226807 3.8125,12.5625c-4.124237,-1.578094 -13.204895,-4.866272 -16.71875,-5.71875c-3.568512,-0.730652 -7.066071,-1.262451 -10.6875,-1.65625l-0.8125,3.375c3.308533,0.359528 6.492371,0.850555 9.75,1.53125c6.696686,1.653259 12.89856,4.685791 19.34375,6.75c0.271149,1.450134 0.561005,2.895294 0.78125,4.375c0.56424,4.669098 1.033203,9.630066 1.125,14.59375l-1.15625,4.53125c-4.953003,-2.064819 -8.836243,-3.664917 -11.4375,-4.75c-12.997894,-5.371887 -26.100006,-10.102142 -39.84375,-13.1875l-3,6.15625c10.873657,2.354065 21.229858,6.082031 31.46875,10.28125c-4.573853,0.282043 -9.120239,0.770386 -13.71875,1.875c-1.074738,0.313477 -2.144012,0.624023 -3.21875,0.9375l2.03125,3.15625c0.975647,-0.281067 1.930603,-0.562683 2.90625,-0.84375c6.804749,-1.630219 13.735199,-1.883209 20.6875,-1.75c5.437225,2.026367 10.831818,3.429535 12.6875,8.125c-0.288635,7.420593 0.269836,13.036743 0.59375,20.40625c0.011688,0.590515 0.019592,3.154572 0.03125,5.71875c-4.231537,-3.331268 -12.112213,-8.940399 -14.375,-10.375c-4.666321,-2.78241 -9.360687,-5.411835 -14.1875,-7.90625l-2.9375,2.59375c4.669647,2.440613 9.21698,5.013153 13.71875,7.75c5.484924,3.56781 13.901459,9.302307 17.625,17.25c-1.180786,21.361053 -0.384949,33.660614 -0.75,56.375c-0.177216,9.159271 0.590851,19.250427 -1.15625,28.3125l11.53125,0c-1.74707,-9.062073 -1.010284,-19.153229 -1.1875,-28.3125c-0.387939,-24.139771 -1.743896,-35.975891 0.3125,-60.0625c0.003174,-0.030823 -0.003174,-0.062927 0,-0.09375c4.813446,-7.332703 10.753601,-15.6987 13.75,-19.25c6.444397,-6.936157 16.248291,-14.462341 24.40625,-19.3125l-6.59375,-5c-4.030151,2.427948 -7.806061,5.120087 -11.40625,8.03125c1.702118,-4.040985 3.572693,-8.542206 4.125,-10.15625l-3.5625,0.59375c-1.12619,3.011322 -4.223999,9.62442 -6.65625,15.125c-2.083313,1.942444 -4.239014,3.783936 -6.21875,5.875c-2.818726,3.230835 -3.12149,3.654755 -5.5625,6.53125c1.825836,-12.031311 4.389099,-23.930481 8.75,-35.34375c0.257751,-0.657166 0.573364,-1.285522 0.84375,-1.9375c3.912323,-1.899292 7.690765,-4.324341 11.09375,-6.28125c3.60321,-1.995697 7.236877,-3.82428 11,-5.5l-2.78125,-2.84375c-3.944519,1.737823 -7.774719,3.600067 -11.5625,5.65625c-1.416534,0.79483 -3.33432,2.009827 -5.125,3.125c4.049713,-8.41095 9.073608,-16.378815 14.625,-23.875c7.37561,-0.190918 14.62439,0.176056 21.84375,2l1.8125,-3.21875c-6.986694,-1.777191 -13.839417,-2.14801 -20.84375,-2.4375c4.680786,-5.899078 9.706177,-11.512115 14.71875,-17.125l-8.625,-3.5c-5.692932,6.382782 -11.473083,12.715576 -16.6875,19.5c-3.01004,4.015289 -5.787018,8.162109 -8.4375,12.40625c-0.087006,-5.591339 -0.074951,-11.188995 -0.125,-16.71875c-0.06485,-8.408051 -0.379852,-16.804016 -1.03125,-25.1875l-4.5,0.15625c0.656738,8.327667 0.939453,16.678162 0.875,25.03125c-0.077393,8.553497 0.221252,17.287689 -0.46875,25.84375c-2.0383,3.874695 -3.918091,7.845856 -5.53125,11.9375c-0.153381,-1.844574 -0.306885,-3.681549 -0.59375,-5.5c-1.129425,-6.248871 -2.641663,-12.240234 -4.5625,-17.96875c-0.853821,-8.682892 -1.938385,-17.183777 -3.4375,-25.8125c-1.34259,-7.898438 -2.517517,-15.763031 -3.1875,-23.75z"/>
   <path id="svg_111" fill="#38a600" fill-rule="evenodd" stroke-width="1.0000000pt" d="m449.197845,370.98172a14.19367,14.19367 0 1 0 -28.387329,0a14.19367,14.19367 0 1 0 28.387329,0z"/>
   <use id="svg_112" y="-29.181442" xlink:href="#path2432" x="211.453869" width="744.09448" height="1052.3622"/>
   <use id="svg_113" y="64.496758" xlink:href="#path2432" x="160.356663" width="744.09448" height="1052.3622"/>
   <path id="svg_114" fill="#2c8400" fill-rule="evenodd" stroke-width="1.0000000pt" d="m463.391449,300.013397a14.19367,14.19367 0 1 0 -28.387329,0a14.19367,14.19367 0 1 0 28.387329,0z"/>
   <use id="svg_115" y="50.303086" xlink:href="#path2463" x="174.550343" width="744.09448" height="1052.3622"/>
   <use id="svg_116" y="124.110154" xlink:href="#path2463" x="160.35667" width="744.09448" height="1052.3622"/>
   <path id="svg_117" fill="#43c800" fill-rule="evenodd" stroke-width="1.0000000pt" d="m452.03656,319.884521a14.19367,14.19367 0 1 0 -28.387329,0a14.19367,14.19367 0 1 0 28.387329,0z"/>
   <use id="svg_118" y="105.414864" xlink:href="#path2466" x="134.808071" width="744.09448" height="1052.3622"/>
   <use id="svg_119" y="53.141827" xlink:href="#path2466" x="185.90527" width="744.09448" height="1052.3622"/>
   <use id="svg_120" y="101.4003" xlink:href="#path2463" x="114.936935" width="744.09448" height="1052.3622"/>
   <use id="svg_121" y="44.625626" xlink:href="#path2432" x="160.35667" width="744.09448" height="1052.3622"/>
   <use id="svg_122" y="67.335488" xlink:href="#path2466" x="149.001732" width="744.09448" height="1052.3622"/>
   <use id="svg_123" y="67.335488" xlink:href="#path2463" x="114.936935" width="744.09448" height="1052.3622"/>
   <use id="svg_124" y="33.270687" xlink:href="#path2432" x="191.582745" width="744.09448" height="1052.3622"/>
   <use id="svg_125" y="4.883357" xlink:href="#path2466" x="149.001732" width="744.09448" height="1052.3622"/>
   <use id="svg_126" y="101.400284" xlink:href="#path2463" x="154.679203" width="744.09448" height="1052.3622"/>
   <use id="svg_127" y="7.722097" xlink:href="#path2432" x="168.87286" width="744.09448" height="1052.3622"/>
   <use id="svg_128" y="36.109427" xlink:href="#path2432" x="147.338852" width="744.09448" height="1052.3622"/>
   <path id="svg_129" fill="#47d900" fill-rule="evenodd" stroke-width="1.0000000pt" d="m474.746368,319.884521a14.19367,14.19367 0 1 0 -28.387329,0a14.19367,14.19367 0 1 0 28.387329,0z"/>
   <use id="svg_130" y="38.948157" xlink:href="#path2479" x="177.389072" width="744.09448" height="1052.3622"/>
   <use id="svg_131" y="21.915757" xlink:href="#path2463" x="160.35667" width="744.09448" height="1052.3622"/>
   <use id="svg_132" y="47.464367" xlink:href="#path2466" x="143.324272" width="744.09448" height="1052.3622"/>
   <use id="svg_133" y="-23.503974" xlink:href="#path2432" x="157.517933" width="744.09448" height="1052.3622"/>
   <use id="svg_134" y="41.786887" xlink:href="#path2466" x="166.03413" width="744.09448" height="1052.3622"/>
   <use id="svg_135" y="16.23829" xlink:href="#path2479" x="149.001732" width="744.09448" height="1052.3622"/>
  </g>
  <g id="svg_271" transform="matrix(1.42929 0 0 1.42929 -159.947 -161.466)">
   <path id="svg_272" fill="#000000" fill-opacity="0.75" fill-rule="nonzero" stroke-width="1.0000000pt" d="m559.03125,291.485199l-4.53125,0.15625c0.651001,8.033783 1.764526,15.975769 3,23.937531c0.548401,3.496338 1.163818,7.095428 1.6875,10.6875c-4.141479,-7.430176 -9.467896,-14.249817 -16.53125,-20.25c-5.728149,-4.316376 -11.682495,-7.856628 -18.15625,-10.9375l-5.59375,5.437469c5.801636,2.670807 11.150879,5.766632 16.3125,9.531281c6.69696,5.529266 11.784668,11.899902 15.71875,18.875c-7.137207,-3.938324 -15.218384,-6.857971 -22.53125,-9.5625c-4.188599,-1.424622 -8.354431,-2.717529 -12.625,-3.875l-1.8125,3.0625c4.085022,1.100952 8.063782,2.337952 12.0625,3.71875c8.136169,3.065308 16.042542,6.622864 23.5625,11c0.392822,0.228577 3.56543,3.070618 5.875,5.124969c1.563232,4.017944 2.819824,8.226807 3.8125,12.5625c-4.124268,-1.578064 -13.204895,-4.866241 -16.71875,-5.718719c-3.568481,-0.730652 -7.06604,-1.262451 -10.6875,-1.65625l-0.8125,3.374969c3.308533,0.359528 6.492371,0.850586 9.75,1.531281c6.696655,1.653259 12.89856,4.685791 19.34375,6.75c0.271118,1.450134 0.561035,2.895264 0.78125,4.375c0.56427,4.669067 1.033203,9.630066 1.125,14.59375l-1.15625,4.53125c-4.953003,-2.064819 -8.836243,-3.664948 -11.4375,-4.75c-12.997925,-5.371918 -26.100037,-10.102142 -39.843719,-13.187531l-3,6.15625c10.873627,2.354095 21.229828,6.082062 31.468719,10.281281c-4.573853,0.282043 -9.120239,0.770386 -13.71875,1.875c-1.074707,0.313477 -2.144043,0.623993 -3.21875,0.9375l2.03125,3.15625c0.975647,-0.281067 1.930603,-0.562683 2.90625,-0.84375c6.804749,-1.630249 13.735229,-1.88324 20.6875,-1.75c5.437195,2.026367 10.831787,3.429504 12.6875,8.125c-0.288635,7.420593 0.269836,13.036743 0.59375,20.40625c0.011719,0.590515 0.019592,3.154541 0.03125,5.71875c-4.231567,-3.331299 -12.112183,-8.940399 -14.375,-10.375c-4.666321,-2.78241 -9.360718,-5.411865 -14.1875,-7.90625l-2.9375,2.59375c4.669678,2.440582 9.21698,5.013153 13.71875,7.75c5.484924,3.56778 13.901489,9.302307 17.625,17.25c-1.180786,21.361053 -0.384949,33.660583 -0.75,56.375c-0.177246,9.159241 0.590881,19.250397 -1.15625,28.3125l11.53125,0c-1.74707,-9.062103 -1.010254,-19.153259 -1.1875,-28.3125c-0.387939,-24.139771 -1.743896,-35.975891 0.3125,-60.0625c0.003174,-0.030823 -0.003174,-0.062927 0,-0.093781c4.813477,-7.332672 10.75354,-15.6987 13.75,-19.249969c6.444336,-6.936157 16.248291,-14.462341 24.40625,-19.3125l-6.59375,-5c-4.030151,2.427917 -7.80603,5.120087 -11.40625,8.03125c1.702148,-4.040985 3.572632,-8.542236 4.125,-10.156281l-3.5625,0.593781c-1.126221,3.011292 -4.223999,9.62439 -6.65625,15.124969c-2.083313,1.942444 -4.239014,3.783966 -6.21875,5.875031c-2.818726,3.230804 -3.12146,3.654724 -5.5625,6.53125c1.825806,-12.031342 4.389038,-23.930481 8.75,-35.34375c0.25769,-0.657196 0.573364,-1.285522 0.84375,-1.9375c3.912354,-1.899292 7.690796,-4.324341 11.09375,-6.28125c3.603149,-1.995697 7.236816,-3.82428 11,-5.5l-2.78125,-2.84375c-3.94458,1.737793 -7.77478,3.600037 -11.562561,5.65625c-1.416443,0.79483 -3.334229,2.009827 -5.124939,3.124969c4.049744,-8.41095 9.073608,-16.378784 14.625,-23.874969c7.37561,-0.190918 14.62439,0.176025 21.84375,2l1.8125,-3.21875c-6.986694,-1.777222 -13.839478,-2.14801 -20.84375,-2.4375c4.680786,-5.899078 9.706116,-11.512146 14.71875,-17.125l-8.625,-3.5c-5.692932,6.382782 -11.473083,12.715576 -16.6875,19.5c-3.01001,4.015259 -5.786987,8.162109 -8.4375,12.40625c-0.086975,-5.59137 -0.074951,-11.188995 -0.125,-16.71875c-0.064819,-8.408051 -0.379883,-16.804016 -1.03125,-25.1875l-4.5,0.156219c0.656738,8.327698 0.939453,16.678192 0.875,25.031281c-0.077454,8.553467 0.221252,17.287659 -0.46875,25.84375c-2.03833,3.874695 -3.918091,7.845825 -5.53125,11.937469c-0.153381,-1.844543 -0.306885,-3.681519 -0.59375,-5.499969c-1.129395,-6.248901 -2.641663,-12.240234 -4.5625,-17.96875c-0.853821,-8.682892 -1.938354,-17.183777 -3.4375,-25.8125c-1.34259,-7.898438 -2.517517,-15.763031 -3.1875,-23.750031z"/>
   <path id="svg_273" fill="#38a600" fill-rule="evenodd" stroke-width="1.0000000pt" d="m531.756348,369.582428a14.19367,14.19367 0 1 0 -28.387329,0a14.19367,14.19367 0 1 0 28.387329,0z"/>
   <use id="svg_274" y="-30.580735" xlink:href="#path2432" x="294.012341" width="744.09448" height="1052.3622"/>
   <use id="svg_275" y="63.097465" xlink:href="#path2432" x="242.915135" width="744.09448" height="1052.3622"/>
   <path id="svg_276" fill="#2c8400" fill-rule="evenodd" stroke-width="1.0000000pt" d="m545.949951,298.614105a14.19367,14.19367 0 1 0 -28.387329,0a14.19367,14.19367 0 1 0 28.387329,0z"/>
   <use id="svg_277" y="48.903793" xlink:href="#path2463" x="257.108815" width="744.09448" height="1052.3622"/>
   <use id="svg_278" y="122.710861" xlink:href="#path2463" x="242.915143" width="744.09448" height="1052.3622"/>
   <path id="svg_279" fill="#43c800" fill-rule="evenodd" stroke-width="1.0000000pt" d="m534.595032,318.485229a14.19367,14.19367 0 1 0 -28.387299,0a14.19367,14.19367 0 1 0 28.387299,0z"/>
   <use id="svg_280" y="104.015571" xlink:href="#path2466" x="217.366544" width="744.09448" height="1052.3622"/>
   <use id="svg_281" y="51.742534" xlink:href="#path2466" x="268.463742" width="744.09448" height="1052.3622"/>
   <use id="svg_282" y="100.001007" xlink:href="#path2463" x="197.495407" width="744.09448" height="1052.3622"/>
   <use id="svg_283" y="43.226333" xlink:href="#path2432" x="242.915143" width="744.09448" height="1052.3622"/>
   <use id="svg_284" y="65.936195" xlink:href="#path2466" x="231.560205" width="744.09448" height="1052.3622"/>
   <use id="svg_285" y="65.936195" xlink:href="#path2463" x="197.495407" width="744.09448" height="1052.3622"/>
   <use id="svg_286" y="31.871394" xlink:href="#path2432" x="274.141217" width="744.09448" height="1052.3622"/>
   <use id="svg_287" y="3.484064" xlink:href="#path2466" x="231.560205" width="744.09448" height="1052.3622"/>
   <use id="svg_288" y="100.000991" xlink:href="#path2463" x="237.237676" width="744.09448" height="1052.3622"/>
   <use id="svg_289" y="6.322804" xlink:href="#path2432" x="251.431333" width="744.09448" height="1052.3622"/>
   <use id="svg_290" y="34.710134" xlink:href="#path2432" x="229.897325" width="744.09448" height="1052.3622"/>
   <path id="svg_291" fill="#47d900" fill-rule="evenodd" stroke-width="1.0000000pt" d="m557.30481,318.485229a14.19367,14.19367 0 1 0 -28.387329,0a14.19367,14.19367 0 1 0 28.387329,0z"/>
   <use id="svg_292" y="37.548864" xlink:href="#path2479" x="259.947545" width="744.09448" height="1052.3622"/>
   <use id="svg_293" y="20.516464" xlink:href="#path2463" x="242.915143" width="744.09448" height="1052.3622"/>
   <use id="svg_294" y="46.065074" xlink:href="#path2466" x="225.882745" width="744.09448" height="1052.3622"/>
   <use id="svg_295" y="-24.903267" xlink:href="#path2432" x="240.076406" width="744.09448" height="1052.3622"/>
   <use id="svg_296" y="40.387594" xlink:href="#path2466" x="248.592603" width="744.09448" height="1052.3622"/>
   <use id="svg_297" y="14.838997" xlink:href="#path2479" x="231.560205" width="744.09448" height="1052.3622"/>
  </g>
  <g id="svg_190" transform="matrix(1.42929 0 0 1.42929 -159.947 -161.466)">
   <path id="svg_191" fill="#000000" fill-opacity="0.75" fill-rule="nonzero" stroke-width="1.0000000pt" d="m520.550598,273.294373l-4.53125,0.15625c0.651001,8.033752 1.764587,15.975739 3,23.9375c0.548401,3.496368 1.163879,7.095428 1.6875,10.6875c-4.141479,-7.430145 -9.467865,-14.249817 -16.53125,-20.25c-5.728149,-4.316376 -11.682526,-7.856628 -18.156219,-10.9375l-5.59375,5.4375c5.801575,2.670776 11.150848,5.766602 16.3125,9.53125c6.69696,5.529266 11.784637,11.899902 15.718719,18.875c-7.137207,-3.938324 -15.218384,-6.857971 -22.53125,-9.5625c-4.188629,-1.424622 -8.354431,-2.717499 -12.624969,-3.875l-1.812531,3.0625c4.085022,1.100952 8.063812,2.337952 12.0625,3.71875c8.13623,3.065308 16.042542,6.622864 23.5625,11c0.392822,0.228607 3.56543,3.070618 5.875,5.125c1.563293,4.017944 2.819824,8.226807 3.8125,12.5625c-4.124207,-1.578094 -13.204895,-4.866272 -16.718719,-5.71875c-3.568512,-0.730652 -7.066101,-1.262451 -10.687531,-1.65625l-0.8125,3.375c3.308533,0.359528 6.492401,0.850555 9.75,1.53125c6.696716,1.653259 12.89856,4.685791 19.34375,6.75c0.271179,1.450134 0.561035,2.895294 0.78125,4.375c0.56427,4.669098 1.033203,9.630066 1.125,14.59375l-1.15625,4.53125c-4.953003,-2.064819 -8.836243,-3.664917 -11.437469,-4.75c-12.997894,-5.371887 -26.100006,-10.102142 -39.843781,-13.1875l-3,6.15625c10.873657,2.354065 21.229889,6.082031 31.468781,10.28125c-4.573883,0.282043 -9.12027,0.770386 -13.718781,1.875c-1.074707,0.313477 -2.143982,0.624023 -3.21875,0.9375l2.03125,3.15625c0.975647,-0.281067 1.930634,-0.562683 2.906281,-0.84375c6.804718,-1.630219 13.735168,-1.883209 20.6875,-1.75c5.437225,2.026367 10.831818,3.429535 12.687469,8.125c-0.288635,7.420593 0.269836,13.036743 0.59375,20.40625c0.011719,0.590515 0.019592,3.154572 0.03125,5.71875c-4.231506,-3.331268 -12.112213,-8.940399 -14.375,-10.375c-4.666321,-2.78241 -9.360657,-5.411835 -14.1875,-7.90625l-2.9375,2.59375c4.669647,2.440613 9.21701,5.013153 13.718781,7.75c5.484894,3.56781 13.901459,9.302307 17.624969,17.25c-1.180786,21.361053 -0.384949,33.660614 -0.75,56.375c-0.177185,9.159271 0.590881,19.250427 -1.15625,28.3125l11.53125,0c-1.74707,-9.062073 -1.010254,-19.153229 -1.1875,-28.3125c-0.387939,-24.139771 -1.743896,-35.975891 0.3125,-60.0625c0.003174,-0.030823 -0.003174,-0.062927 0,-0.09375c4.813477,-7.332703 10.753601,-15.6987 13.75,-19.25c6.444397,-6.936157 16.248291,-14.462341 24.40625,-19.3125l-6.59375,-5c-4.030151,2.427948 -7.80603,5.120087 -11.40625,8.03125c1.702148,-4.040985 3.572693,-8.542206 4.125,-10.15625l-3.5625,0.59375c-1.12616,3.011322 -4.223999,9.62442 -6.65625,15.125c-2.083313,1.942444 -4.239014,3.783936 -6.21875,5.875c-2.818726,3.230835 -3.12146,3.654755 -5.5625,6.53125c1.825867,-12.031311 4.389099,-23.930481 8.75,-35.34375c0.257751,-0.657166 0.573364,-1.285522 0.84375,-1.9375c3.912354,-1.899292 7.690796,-4.324341 11.09375,-6.28125c3.60321,-1.995697 7.236877,-3.82428 11,-5.5l-2.78125,-2.84375c-3.944519,1.737823 -7.774719,3.600067 -11.5625,5.65625c-1.416504,0.79483 -3.33429,2.009827 -5.125,3.125c4.049744,-8.41095 9.073608,-16.378815 14.625,-23.875c7.37561,-0.190918 14.62439,0.176056 21.84375,2l1.8125,-3.21875c-6.986694,-1.777191 -13.839417,-2.14801 -20.84375,-2.4375c4.680786,-5.899078 9.706177,-11.512115 14.71875,-17.125l-8.625,-3.5c-5.692932,6.382782 -11.473083,12.715576 -16.6875,19.5c-3.01001,4.015289 -5.786987,8.162109 -8.4375,12.40625c-0.086975,-5.591339 -0.074951,-11.188995 -0.125,-16.71875c-0.064819,-8.408051 -0.379822,-16.804016 -1.03125,-25.1875l-4.5,0.15625c0.656738,8.327667 0.939453,16.678162 0.875,25.03125c-0.077393,8.553497 0.221252,17.287689 -0.46875,25.84375c-2.038269,3.874695 -3.918091,7.845856 -5.53125,11.9375c-0.153381,-1.844574 -0.306885,-3.681549 -0.59375,-5.5c-1.129395,-6.248871 -2.641663,-12.240234 -4.5625,-17.96875c-0.853821,-8.682892 -1.938354,-17.183777 -3.4375,-25.8125c-1.34259,-7.898438 -2.517517,-15.763031 -3.1875,-23.75z"/>
   <path id="svg_192" fill="#38a600" fill-rule="evenodd" stroke-width="1.0000000pt" d="m493.275696,351.391602a14.19367,14.19367 0 1 0 -28.387329,0a14.19367,14.19367 0 1 0 28.387329,0z"/>
   <use id="svg_193" y="-48.771587" xlink:href="#path2432" x="255.531696" width="744.09448" height="1052.3622"/>
   <use id="svg_194" y="44.906613" xlink:href="#path2432" x="204.43449" width="744.09448" height="1052.3622"/>
   <path id="svg_195" fill="#2c8400" fill-rule="evenodd" stroke-width="1.0000000pt" d="m507.469299,280.423279a14.19367,14.19367 0 1 0 -28.387329,0a14.19367,14.19367 0 1 0 28.387329,0z"/>
   <use id="svg_196" y="30.712941" xlink:href="#path2463" x="218.62817" width="744.09448" height="1052.3622"/>
   <use id="svg_197" y="104.520009" xlink:href="#path2463" x="204.434498" width="744.09448" height="1052.3622"/>
   <path id="svg_198" fill="#43c800" fill-rule="evenodd" stroke-width="1.0000000pt" d="m496.11438,300.294403a14.19367,14.19367 0 1 0 -28.387299,0a14.19367,14.19367 0 1 0 28.387299,0z"/>
   <use id="svg_199" y="85.824719" xlink:href="#path2466" x="178.885899" width="744.09448" height="1052.3622"/>
   <use id="svg_200" y="33.551682" xlink:href="#path2466" x="229.983097" width="744.09448" height="1052.3622"/>
   <use id="svg_201" y="81.810154" xlink:href="#path2463" x="159.014762" width="744.09448" height="1052.3622"/>
   <use id="svg_202" y="25.035481" xlink:href="#path2432" x="204.434498" width="744.09448" height="1052.3622"/>
   <use id="svg_203" y="47.745343" xlink:href="#path2466" x="193.079559" width="744.09448" height="1052.3622"/>
   <use id="svg_204" y="47.745343" xlink:href="#path2463" x="159.014762" width="744.09448" height="1052.3622"/>
   <use id="svg_205" y="13.680542" xlink:href="#path2432" x="235.660572" width="744.09448" height="1052.3622"/>
   <use id="svg_206" y="-14.706789" xlink:href="#path2466" x="193.079559" width="744.09448" height="1052.3622"/>
   <use id="svg_207" y="81.810139" xlink:href="#path2463" x="198.75703" width="744.09448" height="1052.3622"/>
   <use id="svg_208" y="-11.868048" xlink:href="#path2432" x="212.950687" width="744.09448" height="1052.3622"/>
   <use id="svg_209" y="16.519282" xlink:href="#path2432" x="191.416679" width="744.09448" height="1052.3622"/>
   <path id="svg_210" fill="#47d900" fill-rule="evenodd" stroke-width="1.0000000pt" d="m518.824219,300.294403a14.19367,14.19367 0 1 0 -28.387329,0a14.19367,14.19367 0 1 0 28.387329,0z"/>
   <use id="svg_211" y="19.358012" xlink:href="#path2479" x="221.4669" width="744.09448" height="1052.3622"/>
   <use id="svg_212" y="2.325612" xlink:href="#path2463" x="204.434498" width="744.09448" height="1052.3622"/>
   <use id="svg_213" y="27.874222" xlink:href="#path2466" x="187.4021" width="744.09448" height="1052.3622"/>
   <use id="svg_214" y="-43.09412" xlink:href="#path2432" x="201.59576" width="744.09448" height="1052.3622"/>
   <use id="svg_215" y="22.196742" xlink:href="#path2466" x="210.111958" width="744.09448" height="1052.3622"/>
   <use id="svg_216" y="-3.351855" xlink:href="#path2479" x="193.079559" width="744.09448" height="1052.3622"/>
  </g>
  <g id="svg_82" transform="matrix(1.42929 0 0 1.42929 -159.947 -161.466)">
   <path id="svg_83" fill="#000000" fill-opacity="0.75" fill-rule="nonzero" stroke-width="1.0000000pt" d="m395.313599,285.888031l-4.53125,0.15625c0.651001,8.033752 1.764557,15.975739 3,23.9375c0.548401,3.496368 1.163849,7.095428 1.6875,10.6875c-4.14151,-7.430145 -9.467896,-14.249817 -16.53125,-20.25c-5.72818,-4.316376 -11.682526,-7.856628 -18.15625,-10.9375l-5.59375,5.4375c5.801605,2.670776 11.150879,5.766602 16.3125,9.53125c6.696991,5.529266 11.784668,11.899902 15.71875,18.875c-7.137207,-3.938324 -15.218414,-6.857971 -22.53125,-9.5625c-4.188629,-1.424622 -8.354431,-2.717499 -12.625,-3.875l-1.8125,3.0625c4.085022,1.100952 8.063782,2.337952 12.0625,3.71875c8.1362,3.065308 16.042511,6.622864 23.5625,11c0.392792,0.228607 3.56543,3.070618 5.875,5.125c1.563263,4.017944 2.819794,8.226807 3.8125,12.5625c-4.124237,-1.578094 -13.204895,-4.866272 -16.71875,-5.71875c-3.568512,-0.730652 -7.066071,-1.262451 -10.6875,-1.65625l-0.8125,3.375c3.308533,0.359528 6.492371,0.850555 9.75,1.53125c6.696686,1.653259 12.89856,4.685791 19.34375,6.75c0.271149,1.450134 0.561005,2.895294 0.78125,4.375c0.56424,4.669098 1.033203,9.630066 1.125,14.59375l-1.15625,4.53125c-4.953003,-2.064819 -8.836243,-3.664917 -11.4375,-4.75c-12.997894,-5.371887 -26.100006,-10.102142 -39.84375,-13.1875l-3,6.15625c10.873657,2.354065 21.229858,6.082031 31.46875,10.28125c-4.573853,0.282043 -9.120239,0.770386 -13.71875,1.875c-1.074738,0.313477 -2.144012,0.624023 -3.21875,0.9375l2.03125,3.15625c0.975647,-0.281067 1.930603,-0.562683 2.90625,-0.84375c6.804749,-1.630219 13.735199,-1.883209 20.6875,-1.75c5.437225,2.026367 10.831818,3.429535 12.6875,8.125c-0.288635,7.420593 0.269836,13.036743 0.59375,20.40625c0.011688,0.590515 0.019592,3.154572 0.03125,5.71875c-4.231537,-3.331268 -12.112213,-8.940399 -14.375,-10.375c-4.666321,-2.78241 -9.360687,-5.411835 -14.1875,-7.90625l-2.9375,2.59375c4.669647,2.440613 9.21698,5.013153 13.71875,7.75c5.484924,3.56781 13.901459,9.302307 17.625,17.25c-1.180786,21.361053 -0.384949,33.660614 -0.75,56.375c-0.177216,9.159271 0.590851,19.250427 -1.15625,28.3125l11.53125,0c-1.74707,-9.062073 -1.010284,-19.153229 -1.1875,-28.3125c-0.387939,-24.139771 -1.743896,-35.975891 0.3125,-60.0625c0.003174,-0.030823 -0.003174,-0.062927 0,-0.09375c4.813446,-7.332703 10.753601,-15.6987 13.75,-19.25c6.444397,-6.936157 16.248291,-14.462341 24.40625,-19.3125l-6.59375,-5c-4.030151,2.427948 -7.806061,5.120087 -11.40625,8.03125c1.702118,-4.040985 3.572693,-8.542206 4.125,-10.15625l-3.5625,0.59375c-1.12619,3.011322 -4.223999,9.62442 -6.65625,15.125c-2.083313,1.942444 -4.239014,3.783936 -6.21875,5.875c-2.818726,3.230835 -3.12149,3.654755 -5.5625,6.53125c1.825836,-12.031311 4.389099,-23.930481 8.75,-35.34375c0.257751,-0.657166 0.573364,-1.285522 0.84375,-1.9375c3.912323,-1.899292 7.690765,-4.324341 11.09375,-6.28125c3.60318,-1.995697 7.236847,-3.82428 11,-5.5l-2.78125,-2.84375c-3.944519,1.737823 -7.774719,3.600067 -11.5625,5.65625c-1.416534,0.79483 -3.33432,2.009827 -5.125,3.125c4.049713,-8.41095 9.073608,-16.378815 14.625,-23.875c7.37561,-0.190918 14.62439,0.176056 21.84375,2l1.8125,-3.21875c-6.986725,-1.777191 -13.839417,-2.14801 -20.84375,-2.4375c4.680786,-5.899078 9.706146,-11.512115 14.71875,-17.125l-8.625,-3.5c-5.692963,6.382782 -11.473083,12.715576 -16.6875,19.5c-3.01004,4.015289 -5.787018,8.162109 -8.4375,12.40625c-0.087006,-5.591339 -0.074951,-11.188995 -0.125,-16.71875c-0.06485,-8.408051 -0.379852,-16.804016 -1.03125,-25.1875l-4.5,0.15625c0.656738,8.327667 0.939453,16.678162 0.875,25.03125c-0.077393,8.553497 0.221252,17.287689 -0.46875,25.84375c-2.0383,3.874695 -3.918091,7.845856 -5.53125,11.9375c-0.153381,-1.844574 -0.306885,-3.681549 -0.59375,-5.5c-1.129425,-6.248871 -2.641663,-12.240234 -4.5625,-17.96875c-0.853821,-8.682892 -1.938385,-17.183777 -3.4375,-25.8125c-1.34259,-7.898438 -2.517517,-15.763031 -3.1875,-23.75z"/>
   <path id="svg_84" fill="#38a600" fill-rule="evenodd" stroke-width="1.0000000pt" d="m368.038666,363.98526a14.19367,14.19367 0 1 0 -28.387329,0a14.19367,14.19367 0 1 0 28.387329,0z"/>
   <use id="svg_85" y="-36.177922" xlink:href="#path2432" x="130.294694" width="744.09448" height="1052.3622"/>
   <use id="svg_86" y="57.500278" xlink:href="#path2432" x="79.197488" width="744.09448" height="1052.3622"/>
   <path id="svg_87" fill="#2c8400" fill-rule="evenodd" stroke-width="1.0000000pt" d="m382.232269,293.016937a14.19367,14.19367 0 1 0 -28.387329,0a14.19367,14.19367 0 1 0 28.387329,0z"/>
   <use id="svg_88" y="43.306605" xlink:href="#path2463" x="93.391168" width="744.09448" height="1052.3622"/>
   <use id="svg_89" y="117.113673" xlink:href="#path2463" x="79.197495" width="744.09448" height="1052.3622"/>
   <path id="svg_90" fill="#43c800" fill-rule="evenodd" stroke-width="1.0000000pt" d="m370.87738,312.888062a14.19367,14.19367 0 1 0 -28.387329,0a14.19367,14.19367 0 1 0 28.387329,0z"/>
   <use id="svg_91" y="98.418384" xlink:href="#path2466" x="53.648896" width="744.09448" height="1052.3622"/>
   <use id="svg_92" y="46.145347" xlink:href="#path2466" x="104.746095" width="744.09448" height="1052.3622"/>
   <use id="svg_93" y="94.403819" xlink:href="#path2463" x="33.77776" width="744.09448" height="1052.3622"/>
   <use id="svg_94" y="37.629146" xlink:href="#path2432" x="79.197495" width="744.09448" height="1052.3622"/>
   <use id="svg_95" y="60.339007" xlink:href="#path2466" x="67.842557" width="744.09448" height="1052.3622"/>
   <use id="svg_96" y="60.339007" xlink:href="#path2463" x="33.77776" width="744.09448" height="1052.3622"/>
   <use id="svg_97" y="26.274206" xlink:href="#path2432" x="110.42357" width="744.09448" height="1052.3622"/>
   <use id="svg_98" y="-2.113124" xlink:href="#path2466" x="67.842557" width="744.09448" height="1052.3622"/>
   <use id="svg_99" y="94.403804" xlink:href="#path2463" x="73.520028" width="744.09448" height="1052.3622"/>
   <use id="svg_100" y="0.725616" xlink:href="#path2432" x="87.713685" width="744.09448" height="1052.3622"/>
   <use id="svg_101" y="29.112947" xlink:href="#path2432" x="66.179677" width="744.09448" height="1052.3622"/>
   <path id="svg_102" fill="#47d900" fill-rule="evenodd" stroke-width="1.0000000pt" d="m393.587189,312.888062a14.19367,14.19367 0 1 0 -28.387329,0a14.19367,14.19367 0 1 0 28.387329,0z"/>
   <use id="svg_103" y="31.951676" xlink:href="#path2479" x="96.229897" width="744.09448" height="1052.3622"/>
   <use id="svg_104" y="14.919276" xlink:href="#path2463" x="79.197495" width="744.09448" height="1052.3622"/>
   <use id="svg_105" y="40.467887" xlink:href="#path2466" x="62.165097" width="744.09448" height="1052.3622"/>
   <use id="svg_106" y="-30.500455" xlink:href="#path2432" x="76.358758" width="744.09448" height="1052.3622"/>
   <use id="svg_107" y="34.790406" xlink:href="#path2466" x="84.874955" width="744.09448" height="1052.3622"/>
   <use id="svg_108" y="9.241809" xlink:href="#path2479" x="67.842557" width="744.09448" height="1052.3622"/>
  </g>
  <g id="svg_55" transform="matrix(1.42929 0 0 1.42929 -159.947 -161.466)">
   <path id="svg_56" fill="#000000" fill-opacity="0.75" fill-rule="nonzero" stroke-width="1.0000000pt" d="m326.048462,295.683105l-4.53125,0.15625c0.651001,8.033752 1.764557,15.975739 3,23.9375c0.548401,3.496368 1.163849,7.095428 1.6875,10.6875c-4.14151,-7.430145 -9.467896,-14.249817 -16.53125,-20.25c-5.72818,-4.316376 -11.682526,-7.856628 -18.15625,-10.9375l-5.59375,5.4375c5.801605,2.670776 11.150879,5.766602 16.3125,9.53125c6.696991,5.529266 11.784668,11.899902 15.71875,18.875c-7.137207,-3.938324 -15.218414,-6.857971 -22.53125,-9.5625c-4.188629,-1.424622 -8.354431,-2.717499 -12.625,-3.875l-1.8125,3.0625c4.085022,1.100952 8.063782,2.337952 12.0625,3.71875c8.1362,3.065308 16.042511,6.622864 23.5625,11c0.392792,0.228607 3.56543,3.070618 5.875,5.125c1.563263,4.017944 2.819794,8.226807 3.8125,12.5625c-4.124237,-1.578094 -13.204895,-4.866272 -16.71875,-5.71875c-3.568512,-0.730652 -7.066071,-1.262451 -10.6875,-1.65625l-0.8125,3.375c3.308533,0.359528 6.492371,0.850555 9.75,1.53125c6.696686,1.653259 12.89856,4.685791 19.34375,6.75c0.271149,1.450134 0.561005,2.895294 0.78125,4.375c0.56424,4.669098 1.033203,9.630066 1.125,14.59375l-1.15625,4.53125c-4.953003,-2.064819 -8.836243,-3.664917 -11.4375,-4.75c-12.997894,-5.371887 -26.100006,-10.102142 -39.84375,-13.1875l-3,6.15625c10.873657,2.354065 21.229858,6.082031 31.46875,10.28125c-4.573853,0.282043 -9.120239,0.770386 -13.71875,1.875c-1.074738,0.313477 -2.144012,0.624023 -3.21875,0.9375l2.03125,3.15625c0.975647,-0.281067 1.930603,-0.562683 2.90625,-0.84375c6.804749,-1.630219 13.735199,-1.883209 20.6875,-1.75c5.437225,2.026367 10.831818,3.429535 12.6875,8.125c-0.288635,7.420593 0.269836,13.036743 0.59375,20.40625c0.011688,0.590515 0.019592,3.154572 0.03125,5.71875c-4.231537,-3.331268 -12.112213,-8.940399 -14.375,-10.375c-4.666321,-2.78241 -9.360687,-5.411835 -14.1875,-7.90625l-2.9375,2.59375c4.669647,2.440613 9.21698,5.013153 13.71875,7.75c5.484924,3.56781 13.901459,9.302307 17.625,17.25c-1.180786,21.361053 -0.384949,33.660614 -0.75,56.375c-0.177216,9.159271 0.590851,19.250427 -1.15625,28.3125l11.53125,0c-1.74707,-9.062073 -1.010284,-19.153229 -1.1875,-28.3125c-0.387939,-24.139771 -1.743896,-35.975891 0.3125,-60.0625c0.003174,-0.030823 -0.003174,-0.062927 0,-0.09375c4.813446,-7.332703 10.753601,-15.6987 13.75,-19.25c6.444397,-6.936157 16.248291,-14.462341 24.40625,-19.3125l-6.59375,-5c-4.030151,2.427948 -7.806061,5.120087 -11.40625,8.03125c1.702118,-4.040985 3.572693,-8.542206 4.125,-10.15625l-3.5625,0.59375c-1.12619,3.011322 -4.223999,9.62442 -6.65625,15.125c-2.083313,1.942444 -4.239014,3.783936 -6.21875,5.875c-2.818726,3.230835 -3.12149,3.654755 -5.5625,6.53125c1.825836,-12.031311 4.389099,-23.930481 8.75,-35.34375c0.257751,-0.657166 0.573364,-1.285522 0.84375,-1.9375c3.912323,-1.899292 7.690765,-4.324341 11.09375,-6.28125c3.60318,-1.995697 7.236847,-3.82428 11,-5.5l-2.78125,-2.84375c-3.944519,1.737823 -7.774719,3.600067 -11.5625,5.65625c-1.416534,0.79483 -3.33432,2.009827 -5.125,3.125c4.049713,-8.41095 9.073608,-16.378815 14.625,-23.875c7.37561,-0.190918 14.62439,0.176056 21.84375,2l1.8125,-3.21875c-6.986725,-1.777191 -13.839417,-2.14801 -20.84375,-2.4375c4.680786,-5.899078 9.706146,-11.512115 14.71875,-17.125l-8.625,-3.5c-5.692963,6.382782 -11.473083,12.715576 -16.6875,19.5c-3.01004,4.015289 -5.787018,8.162109 -8.4375,12.40625c-0.087006,-5.591339 -0.074951,-11.188995 -0.125,-16.71875c-0.06485,-8.408051 -0.379852,-16.804016 -1.03125,-25.1875l-4.5,0.15625c0.656738,8.327667 0.939453,16.678162 0.875,25.03125c-0.077393,8.553497 0.221252,17.287689 -0.46875,25.84375c-2.0383,3.874695 -3.918091,7.845856 -5.53125,11.9375c-0.153381,-1.844574 -0.306885,-3.681549 -0.59375,-5.5c-1.129425,-6.248871 -2.641663,-12.240234 -4.5625,-17.96875c-0.853821,-8.682892 -1.938385,-17.183777 -3.4375,-25.8125c-1.34259,-7.898438 -2.517517,-15.763031 -3.1875,-23.75z"/>
   <path id="svg_57" fill="#38a600" fill-rule="evenodd" stroke-width="1.0000000pt" d="m298.773529,373.780334a14.19367,14.19367 0 1 0 -28.387329,0a14.19367,14.19367 0 1 0 28.387329,0z"/>
   <use id="svg_58" y="-26.382849" xlink:href="#path2432" x="61.029537" width="744.09448" height="1052.3622"/>
   <use id="svg_59" y="67.295351" xlink:href="#path2432" x="9.932331" width="744.09448" height="1052.3622"/>
   <path id="svg_60" fill="#2c8400" fill-rule="evenodd" stroke-width="1.0000000pt" d="m312.967133,302.812012a14.19367,14.19367 0 1 0 -28.387329,0a14.19367,14.19367 0 1 0 28.387329,0z"/>
   <use id="svg_61" y="53.101678" xlink:href="#path2463" x="24.126011" width="744.09448" height="1052.3622"/>
   <use id="svg_62" y="126.908746" xlink:href="#path2463" x="9.932339" width="744.09448" height="1052.3622"/>
   <path id="svg_63" fill="#43c800" fill-rule="evenodd" stroke-width="1.0000000pt" d="m301.612244,322.683136a14.19367,14.19367 0 1 0 -28.387329,0a14.19367,14.19367 0 1 0 28.387329,0z"/>
   <use id="svg_64" y="108.213457" xlink:href="#path2466" x="-15.616261" width="744.09448" height="1052.3622"/>
   <use id="svg_65" y="55.94042" xlink:href="#path2466" x="35.480938" width="744.09448" height="1052.3622"/>
   <use id="svg_66" y="104.198892" xlink:href="#path2463" x="-35.487397" width="744.09448" height="1052.3622"/>
   <use id="svg_67" y="47.424219" xlink:href="#path2432" x="9.932339" width="744.09448" height="1052.3622"/>
   <use id="svg_68" y="70.13408" xlink:href="#path2466" x="-1.4226" width="744.09448" height="1052.3622"/>
   <use id="svg_69" y="70.13408" xlink:href="#path2463" x="-35.487397" width="744.09448" height="1052.3622"/>
   <use id="svg_70" y="36.069279" xlink:href="#path2432" x="41.158413" width="744.09448" height="1052.3622"/>
   <use id="svg_71" y="7.681949" xlink:href="#path2466" x="-1.4226" width="744.09448" height="1052.3622"/>
   <use id="svg_72" y="104.198877" xlink:href="#path2463" x="4.254871" width="744.09448" height="1052.3622"/>
   <use id="svg_73" y="10.520689" xlink:href="#path2432" x="18.448528" width="744.09448" height="1052.3622"/>
   <use id="svg_74" y="38.90802" xlink:href="#path2432" x="-3.08548" width="744.09448" height="1052.3622"/>
   <path id="svg_75" fill="#47d900" fill-rule="evenodd" stroke-width="1.0000000pt" d="m324.322052,322.683136a14.19367,14.19367 0 1 0 -28.387329,0a14.19367,14.19367 0 1 0 28.387329,0z"/>
   <use id="svg_76" y="41.746749" xlink:href="#path2479" x="26.964741" width="744.09448" height="1052.3622"/>
   <use id="svg_77" y="24.714349" xlink:href="#path2463" x="9.932339" width="744.09448" height="1052.3622"/>
   <use id="svg_78" y="50.26296" xlink:href="#path2466" x="-7.10006" width="744.09448" height="1052.3622"/>
   <use id="svg_79" y="-20.705382" xlink:href="#path2432" x="7.093601" width="744.09448" height="1052.3622"/>
   <use id="svg_80" y="44.585479" xlink:href="#path2466" x="15.609798" width="744.09448" height="1052.3622"/>
   <use id="svg_81" y="19.036882" xlink:href="#path2479" x="-1.4226" width="744.09448" height="1052.3622"/>
  </g>
  <g id="svg_136" transform="matrix(1.42929 0 0 1.42929 -159.947 -161.466)">
   <path id="svg_137" fill="#000000" fill-opacity="0.75" fill-rule="nonzero" stroke-width="1.0000000pt" d="m210.606522,284.488739l-4.53125,0.15625c0.651001,8.033752 1.764557,15.975739 3,23.9375c0.548401,3.496368 1.163849,7.095428 1.6875,10.6875c-4.14151,-7.430145 -9.467896,-14.249817 -16.53125,-20.25c-5.72818,-4.316376 -11.682526,-7.856628 -18.15625,-10.9375l-5.59375,5.4375c5.801605,2.670776 11.150879,5.766602 16.3125,9.53125c6.696991,5.529266 11.784668,11.899902 15.71875,18.875c-7.137207,-3.938324 -15.218414,-6.857971 -22.53125,-9.5625c-4.188629,-1.424622 -8.354431,-2.717499 -12.625,-3.875l-1.8125,3.0625c4.085022,1.100952 8.063782,2.337952 12.0625,3.71875c8.1362,3.065308 16.042511,6.622864 23.5625,11c0.392792,0.228607 3.56543,3.070618 5.875,5.125c1.563263,4.017944 2.819794,8.226807 3.8125,12.5625c-4.124237,-1.578094 -13.204895,-4.866272 -16.71875,-5.71875c-3.568512,-0.730652 -7.066071,-1.262451 -10.6875,-1.65625l-0.8125,3.375c3.308533,0.359528 6.492371,0.850555 9.75,1.53125c6.696686,1.653259 12.89856,4.685791 19.34375,6.75c0.271149,1.450134 0.561005,2.895294 0.78125,4.375c0.56424,4.669098 1.033203,9.630066 1.125,14.59375l-1.15625,4.53125c-4.953003,-2.064819 -8.836243,-3.664917 -11.4375,-4.75c-12.997894,-5.371887 -26.100006,-10.102142 -39.84375,-13.1875l-3,6.15625c10.873657,2.354065 21.229858,6.082031 31.46875,10.28125c-4.573853,0.282043 -9.120239,0.770386 -13.71875,1.875c-1.074738,0.313477 -2.144012,0.624023 -3.21875,0.9375l2.03125,3.15625c0.975647,-0.281067 1.930603,-0.562683 2.90625,-0.84375c6.804749,-1.630219 13.735199,-1.883209 20.6875,-1.75c5.437225,2.026367 10.831818,3.429535 12.6875,8.125c-0.288635,7.420593 0.269836,13.036743 0.59375,20.40625c0.011688,0.590515 0.019592,3.154572 0.03125,5.71875c-4.231537,-3.331268 -12.112213,-8.940399 -14.375,-10.375c-4.666321,-2.78241 -9.360687,-5.411835 -14.1875,-7.90625l-2.9375,2.59375c4.669647,2.440613 9.21698,5.013153 13.71875,7.75c5.484924,3.56781 13.901459,9.302307 17.625,17.25c-1.180786,21.361053 -0.384949,33.660614 -0.75,56.375c-0.177216,9.159271 0.590851,19.250427 -1.15625,28.3125l11.53125,0c-1.74707,-9.062073 -1.010284,-19.153229 -1.1875,-28.3125c-0.387939,-24.139771 -1.743896,-35.975891 0.3125,-60.0625c0.003174,-0.030823 -0.003174,-0.062927 0,-0.09375c4.813446,-7.332703 10.753601,-15.6987 13.75,-19.25c6.444397,-6.936157 16.248291,-14.462341 24.406235,-19.3125l-6.593735,-5c-4.030151,2.427948 -7.806061,5.120087 -11.40625,8.03125c1.702118,-4.040985 3.572693,-8.542206 4.125,-10.15625l-3.5625,0.59375c-1.12619,3.011322 -4.223999,9.62442 -6.65625,15.125c-2.083313,1.942444 -4.239014,3.783936 -6.21875,5.875c-2.818726,3.230835 -3.12149,3.654755 -5.5625,6.53125c1.825836,-12.031311 4.389099,-23.930481 8.75,-35.34375c0.257751,-0.657166 0.573364,-1.285522 0.84375,-1.9375c3.912323,-1.899292 7.690765,-4.324341 11.09375,-6.28125c3.60318,-1.995697 7.236847,-3.82428 11,-5.5l-2.78125,-2.84375c-3.944519,1.737823 -7.774719,3.600067 -11.5625,5.65625c-1.416534,0.79483 -3.33432,2.009827 -5.125,3.125c4.049713,-8.41095 9.073608,-16.378815 14.625,-23.875c7.375595,-0.190918 14.624405,0.176056 21.843735,2l1.812531,-3.21875c-6.986725,-1.777191 -13.839447,-2.14801 -20.843765,-2.4375c4.680771,-5.899078 9.706161,-11.512115 14.718765,-17.125l-8.625,-3.5c-5.692978,6.382782 -11.473099,12.715576 -16.687515,19.5c-3.01004,4.015289 -5.787018,8.162109 -8.4375,12.40625c-0.087006,-5.591339 -0.074951,-11.188995 -0.125,-16.71875c-0.06485,-8.408051 -0.379852,-16.804016 -1.03125,-25.1875l-4.5,0.15625c0.656738,8.327667 0.939453,16.678162 0.875,25.03125c-0.077393,8.553497 0.221252,17.287689 -0.46875,25.84375c-2.0383,3.874695 -3.918091,7.845856 -5.53125,11.9375c-0.153381,-1.844574 -0.306885,-3.681549 -0.59375,-5.5c-1.129425,-6.248871 -2.641663,-12.240234 -4.5625,-17.96875c-0.853821,-8.682892 -1.938385,-17.183777 -3.4375,-25.8125c-1.34259,-7.898438 -2.517517,-15.763031 -3.1875,-23.75z"/>
   <path id="svg_138" fill="#38a600" fill-rule="evenodd" stroke-width="1.0000000pt" d="m183.331589,362.585968a14.19367,14.19367 0 1 0 -28.387329,0a14.19367,14.19367 0 1 0 28.387329,0z"/>
   <use id="svg_139" y="-37.577218" xlink:href="#path2432" x="-54.412395" width="744.09448" height="1052.3622"/>
   <use id="svg_140" y="56.100982" xlink:href="#path2432" x="-105.509602" width="744.09448" height="1052.3622"/>
   <path id="svg_141" fill="#2c8400" fill-rule="evenodd" stroke-width="1.0000000pt" d="m197.525192,291.617645a14.19367,14.19367 0 1 0 -28.387329,0a14.19367,14.19367 0 1 0 28.387329,0z"/>
   <use id="svg_142" y="41.90731" xlink:href="#path2463" x="-91.315922" width="744.09448" height="1052.3622"/>
   <use id="svg_143" y="115.714377" xlink:href="#path2463" x="-105.509594" width="744.09448" height="1052.3622"/>
   <path id="svg_144" fill="#43c800" fill-rule="evenodd" stroke-width="1.0000000pt" d="m186.170303,311.48877a14.19367,14.19367 0 1 0 -28.387329,0a14.19367,14.19367 0 1 0 28.387329,0z"/>
   <use id="svg_145" y="97.019088" xlink:href="#path2466" x="-131.058193" width="744.09448" height="1052.3622"/>
   <use id="svg_146" y="44.746051" xlink:href="#path2466" x="-79.960995" width="744.09448" height="1052.3622"/>
   <use id="svg_147" y="93.004523" xlink:href="#path2463" x="-150.92933" width="744.09448" height="1052.3622"/>
   <use id="svg_148" y="36.22985" xlink:href="#path2432" x="-105.509594" width="744.09448" height="1052.3622"/>
   <use id="svg_149" y="58.939712" xlink:href="#path2466" x="-116.864532" width="744.09448" height="1052.3622"/>
   <use id="svg_150" y="58.939712" xlink:href="#path2463" x="-150.92933" width="744.09448" height="1052.3622"/>
   <use id="svg_151" y="24.87491" xlink:href="#path2432" x="-74.28352" width="744.09448" height="1052.3622"/>
   <use id="svg_152" y="-3.51242" xlink:href="#path2466" x="-116.864532" width="744.09448" height="1052.3622"/>
   <use id="svg_153" y="93.004508" xlink:href="#path2463" x="-111.187061" width="744.09448" height="1052.3622"/>
   <use id="svg_154" y="-0.673679" xlink:href="#path2432" x="-96.993404" width="744.09448" height="1052.3622"/>
   <use id="svg_155" y="27.713651" xlink:href="#path2432" x="-118.527412" width="744.09448" height="1052.3622"/>
   <path id="svg_156" fill="#47d900" fill-rule="evenodd" stroke-width="1.0000000pt" d="m208.880112,311.48877a14.19367,14.19367 0 1 0 -28.387329,0a14.19367,14.19367 0 1 0 28.387329,0z"/>
   <use id="svg_157" y="30.552381" xlink:href="#path2479" x="-88.477192" width="744.09448" height="1052.3622"/>
   <use id="svg_158" y="13.51998" xlink:href="#path2463" x="-105.509594" width="744.09448" height="1052.3622"/>
   <use id="svg_159" y="39.068591" xlink:href="#path2466" x="-122.541992" width="744.09448" height="1052.3622"/>
   <use id="svg_160" y="-31.899751" xlink:href="#path2432" x="-108.348331" width="744.09448" height="1052.3622"/>
   <use id="svg_161" y="33.39111" xlink:href="#path2466" x="-99.832134" width="744.09448" height="1052.3622"/>
   <use id="svg_162" y="7.842514" xlink:href="#path2479" x="-116.864532" width="744.09448" height="1052.3622"/>
  </g>
  <g id="svg_217" transform="matrix(1.42929 0 0 1.42929 -159.947 -161.466)">
   <path id="svg_218" fill="#000000" fill-opacity="0.75" fill-rule="nonzero" stroke-width="1.0000000pt" d="m423.999176,326.46759l-4.53125,0.15625c0.651001,8.033752 1.764557,15.975739 3,23.9375c0.548401,3.496368 1.163849,7.095428 1.6875,10.6875c-4.14151,-7.430145 -9.467896,-14.249817 -16.53125,-20.25c-5.72818,-4.316376 -11.682526,-7.856628 -18.15625,-10.9375l-5.59375,5.4375c5.801605,2.670776 11.150879,5.766602 16.3125,9.53125c6.696991,5.529266 11.784668,11.899902 15.71875,18.875c-7.137207,-3.938324 -15.218414,-6.857971 -22.53125,-9.5625c-4.188629,-1.424622 -8.354431,-2.717499 -12.625,-3.875l-1.8125,3.0625c4.085022,1.100952 8.063782,2.337952 12.0625,3.71875c8.1362,3.065308 16.042511,6.622864 23.5625,11c0.392792,0.228607 3.56543,3.070618 5.875,5.125c1.563263,4.017944 2.819794,8.226807 3.8125,12.5625c-4.124237,-1.578094 -13.204895,-4.866272 -16.71875,-5.71875c-3.568512,-0.730652 -7.066071,-1.262451 -10.6875,-1.65625l-0.8125,3.375c3.308533,0.359528 6.492371,0.850555 9.75,1.53125c6.696686,1.653259 12.89856,4.685791 19.34375,6.75c0.271149,1.450134 0.561005,2.895294 0.78125,4.375c0.56424,4.669098 1.033203,9.630066 1.125,14.59375l-1.15625,4.53125c-4.953003,-2.064819 -8.836243,-3.664917 -11.4375,-4.75c-12.997894,-5.371887 -26.100006,-10.102142 -39.84375,-13.1875l-3,6.15625c10.873657,2.354065 21.229858,6.082031 31.46875,10.28125c-4.573853,0.282043 -9.120239,0.770386 -13.71875,1.875c-1.074738,0.313477 -2.144012,0.624023 -3.21875,0.9375l2.03125,3.15625c0.975647,-0.281067 1.930603,-0.562683 2.90625,-0.84375c6.804749,-1.630219 13.735199,-1.883209 20.6875,-1.75c5.437225,2.026367 10.831818,3.429535 12.6875,8.125c-0.288635,7.420593 0.269836,13.036743 0.59375,20.40625c0.011688,0.590515 0.019592,3.154572 0.03125,5.71875c-4.231537,-3.331268 -12.112213,-8.940399 -14.375,-10.375c-4.666321,-2.78241 -9.360687,-5.411835 -14.1875,-7.90625l-2.9375,2.59375c4.669647,2.440613 9.21698,5.013153 13.71875,7.75c5.484924,3.56781 13.901459,9.302307 17.625,17.25c-1.180786,21.361053 -0.384949,33.660614 -0.75,56.375c-0.177216,9.159302 0.590851,19.250427 -1.15625,28.3125l11.53125,0c-1.74707,-9.062073 -1.010284,-19.153198 -1.1875,-28.3125c-0.387939,-24.139771 -1.743896,-35.975891 0.3125,-60.0625c0.003174,-0.030823 -0.003174,-0.062927 0,-0.09375c4.813446,-7.332703 10.753601,-15.6987 13.75,-19.25c6.444397,-6.936157 16.248291,-14.462341 24.40625,-19.3125l-6.59375,-5c-4.030151,2.427948 -7.806061,5.120087 -11.40625,8.03125c1.702118,-4.040985 3.572693,-8.542206 4.125,-10.15625l-3.5625,0.59375c-1.12619,3.011322 -4.223999,9.62442 -6.65625,15.125c-2.083313,1.942444 -4.239014,3.783936 -6.21875,5.875c-2.818726,3.230835 -3.12149,3.654755 -5.5625,6.53125c1.825836,-12.031311 4.389099,-23.930481 8.75,-35.34375c0.257751,-0.657166 0.573364,-1.285522 0.84375,-1.9375c3.912323,-1.899292 7.690765,-4.324341 11.09375,-6.28125c3.60318,-1.995697 7.236847,-3.82428 11,-5.5l-2.78125,-2.84375c-3.944519,1.737823 -7.774719,3.600067 -11.5625,5.65625c-1.416534,0.79483 -3.33432,2.009827 -5.125,3.125c4.049713,-8.41095 9.073608,-16.378815 14.625,-23.875c7.37561,-0.190918 14.62439,0.176056 21.84375,2l1.8125,-3.21875c-6.986725,-1.777191 -13.839417,-2.14801 -20.84375,-2.4375c4.680786,-5.899078 9.706146,-11.512115 14.71875,-17.125l-8.625,-3.5c-5.692963,6.382782 -11.473083,12.715576 -16.6875,19.5c-3.01004,4.015289 -5.787018,8.162109 -8.4375,12.40625c-0.087006,-5.591339 -0.074951,-11.188995 -0.125,-16.71875c-0.06485,-8.408051 -0.379852,-16.804016 -1.03125,-25.1875l-4.5,0.15625c0.656738,8.327667 0.939453,16.678162 0.875,25.03125c-0.077393,8.553497 0.221252,17.287689 -0.46875,25.84375c-2.0383,3.874695 -3.918091,7.845856 -5.53125,11.9375c-0.153381,-1.844574 -0.306885,-3.681549 -0.59375,-5.5c-1.129425,-6.248871 -2.641663,-12.240234 -4.5625,-17.96875c-0.853821,-8.682892 -1.938385,-17.183777 -3.4375,-25.8125c-1.34259,-7.898438 -2.517517,-15.763031 -3.1875,-23.75z"/>
   <path id="svg_219" fill="#38a600" fill-rule="evenodd" stroke-width="1.0000000pt" d="m396.724243,404.564819a14.19367,14.19367 0 1 0 -28.387329,0a14.19367,14.19367 0 1 0 28.387329,0z"/>
   <use id="svg_220" y="4.401663" xlink:href="#path2432" x="158.980263" width="744.09448" height="1052.3622"/>
   <use id="svg_221" y="98.079863" xlink:href="#path2432" x="107.883057" width="744.09448" height="1052.3622"/>
   <path id="svg_222" fill="#2c8400" fill-rule="evenodd" stroke-width="1.0000000pt" d="m410.917847,333.596497a14.19367,14.19367 0 1 0 -28.387329,0a14.19367,14.19367 0 1 0 28.387329,0z"/>
   <use id="svg_223" y="83.886191" xlink:href="#path2463" x="122.076737" width="744.09448" height="1052.3622"/>
   <use id="svg_224" y="157.693259" xlink:href="#path2463" x="107.883065" width="744.09448" height="1052.3622"/>
   <path id="svg_225" fill="#43c800" fill-rule="evenodd" stroke-width="1.0000000pt" d="m399.562958,353.467621a14.19367,14.19367 0 1 0 -28.387329,0a14.19367,14.19367 0 1 0 28.387329,0z"/>
   <use id="svg_226" y="138.997969" xlink:href="#path2466" x="82.334466" width="744.09448" height="1052.3622"/>
   <use id="svg_227" y="86.724932" xlink:href="#path2466" x="133.431664" width="744.09448" height="1052.3622"/>
   <use id="svg_228" y="134.983404" xlink:href="#path2463" x="62.463329" width="744.09448" height="1052.3622"/>
   <use id="svg_229" y="78.208731" xlink:href="#path2432" x="107.883065" width="744.09448" height="1052.3622"/>
   <use id="svg_230" y="100.918593" xlink:href="#path2466" x="96.528126" width="744.09448" height="1052.3622"/>
   <use id="svg_231" y="100.918593" xlink:href="#path2463" x="62.463329" width="744.09448" height="1052.3622"/>
   <use id="svg_232" y="66.853791" xlink:href="#path2432" x="139.109139" width="744.09448" height="1052.3622"/>
   <use id="svg_233" y="38.466461" xlink:href="#path2466" x="96.528126" width="744.09448" height="1052.3622"/>
   <use id="svg_234" y="134.983389" xlink:href="#path2463" x="102.205597" width="744.09448" height="1052.3622"/>
   <use id="svg_235" y="41.305202" xlink:href="#path2432" x="116.399254" width="744.09448" height="1052.3622"/>
   <use id="svg_236" y="69.692532" xlink:href="#path2432" x="94.865246" width="744.09448" height="1052.3622"/>
   <path id="svg_237" fill="#47d900" fill-rule="evenodd" stroke-width="1.0000000pt" d="m422.272766,353.467621a14.19367,14.19367 0 1 0 -28.387329,0a14.19367,14.19367 0 1 0 28.387329,0z"/>
   <use id="svg_238" y="72.531262" xlink:href="#path2479" x="124.915467" width="744.09448" height="1052.3622"/>
   <use id="svg_239" y="55.498862" xlink:href="#path2463" x="107.883065" width="744.09448" height="1052.3622"/>
   <use id="svg_240" y="81.047472" xlink:href="#path2466" x="90.850667" width="744.09448" height="1052.3622"/>
   <use id="svg_241" y="10.07913" xlink:href="#path2432" x="105.044327" width="744.09448" height="1052.3622"/>
   <use id="svg_242" y="75.369992" xlink:href="#path2466" x="113.560524" width="744.09448" height="1052.3622"/>
   <use id="svg_243" y="49.821395" xlink:href="#path2479" x="96.528126" width="744.09448" height="1052.3622"/>
  </g>
  <g id="svg_163" transform="matrix(1.42929 0 0 1.42929 -159.947 -161.466)">
   <path id="svg_164" fill="#000000" fill-opacity="0.75" fill-rule="nonzero" stroke-width="1.0000000pt" d="m288.267456,239.711227l-4.53125,0.156265c0.651001,8.033783 1.764557,15.975769 3,23.937531c0.548401,3.496368 1.163849,7.095428 1.6875,10.6875c-4.14151,-7.430145 -9.467896,-14.249847 -16.53125,-20.25c-5.72818,-4.316376 -11.682526,-7.856659 -18.156235,-10.9375l-5.59375,5.437469c5.801605,2.670761 11.150864,5.766602 16.312485,9.53125c6.696991,5.529297 11.784668,11.899933 15.71875,18.875031c-7.137207,-3.938324 -15.218414,-6.857971 -22.53125,-9.5625c-4.188614,-1.424622 -8.354416,-2.717499 -12.624985,-3.875l-1.8125,3.0625c4.085007,1.100952 8.063782,2.337952 12.0625,3.71875c8.136185,3.065308 16.042496,6.622864 23.562485,11c0.392792,0.228607 3.56543,3.070618 5.875,5.125c1.563263,4.017944 2.819794,8.226807 3.8125,12.5625c-4.124237,-1.578094 -13.204895,-4.866272 -16.71875,-5.71875c-3.568512,-0.730652 -7.066071,-1.262451 -10.6875,-1.65625l-0.8125,3.375c3.308533,0.359528 6.492371,0.850555 9.75,1.53125c6.696686,1.653259 12.89856,4.685791 19.34375,6.75c0.271149,1.450134 0.561005,2.895294 0.78125,4.375c0.56424,4.669098 1.033203,9.630066 1.125,14.59375l-1.15625,4.53125c-4.953003,-2.064819 -8.836243,-3.664917 -11.4375,-4.75c-12.997894,-5.371887 -26.099991,-10.102142 -39.84375,-13.1875l-3,6.15625c10.873672,2.354065 21.229858,6.082031 31.46875,10.28125c-4.573853,0.282043 -9.120239,0.770386 -13.718735,1.875c-1.074738,0.313477 -2.144012,0.624023 -3.21875,0.9375l2.03125,3.15625c0.975647,-0.281067 1.930603,-0.562683 2.90625,-0.84375c6.804733,-1.630219 13.735184,-1.883209 20.687485,-1.75c5.437225,2.026367 10.831818,3.429535 12.6875,8.125c-0.288635,7.420593 0.269836,13.036743 0.59375,20.40625c0.011688,0.590515 0.019592,3.154572 0.03125,5.71875c-4.231537,-3.331268 -12.112213,-8.940399 -14.375,-10.375c-4.666321,-2.78241 -9.360687,-5.411835 -14.1875,-7.90625l-2.9375,2.59375c4.669647,2.440613 9.21698,5.013153 13.71875,7.75c5.484924,3.56781 13.901459,9.302307 17.625,17.25c-1.180786,21.361053 -0.384949,33.660614 -0.75,56.375c-0.177216,9.159271 0.590851,19.250427 -1.15625,28.3125l11.53125,0c-1.74707,-9.062073 -1.010284,-19.153229 -1.1875,-28.3125c-0.387939,-24.139771 -1.743896,-35.975891 0.3125,-60.0625c0.003174,-0.030823 -0.003174,-0.062927 0,-0.09375c4.813446,-7.332703 10.753601,-15.6987 13.75,-19.25c6.444397,-6.936157 16.248291,-14.462341 24.40625,-19.3125l-6.59375,-5c-4.030151,2.427948 -7.806061,5.120087 -11.40625,8.03125c1.702118,-4.040985 3.572693,-8.542206 4.125,-10.15625l-3.5625,0.59375c-1.12619,3.011322 -4.223999,9.62442 -6.65625,15.125c-2.083313,1.942444 -4.239014,3.783936 -6.21875,5.875c-2.818726,3.230835 -3.12149,3.654755 -5.5625,6.53125c1.825836,-12.031311 4.389099,-23.930481 8.75,-35.34375c0.257751,-0.657166 0.573364,-1.285522 0.84375,-1.9375c3.912323,-1.899292 7.690765,-4.324341 11.09375,-6.28125c3.60318,-1.995697 7.236847,-3.82428 11,-5.5l-2.78125,-2.84375c-3.944519,1.737823 -7.774719,3.600067 -11.5625,5.65625c-1.416534,0.79483 -3.33432,2.009827 -5.125,3.125c4.049713,-8.41095 9.073608,-16.378815 14.625,-23.875c7.37561,-0.190918 14.62439,0.176056 21.84375,2l1.8125,-3.21875c-6.986725,-1.777191 -13.839417,-2.14801 -20.84375,-2.4375c4.680786,-5.899078 9.706146,-11.512115 14.71875,-17.125l-8.625,-3.500031c-5.692963,6.382813 -11.473083,12.715607 -16.6875,19.500031c-3.01004,4.015289 -5.787018,8.162109 -8.4375,12.40625c-0.087006,-5.591339 -0.074951,-11.188995 -0.125,-16.71875c-0.06485,-8.408051 -0.379852,-16.804016 -1.03125,-25.187531l-4.5,0.15625c0.656738,8.327698 0.939453,16.678192 0.875,25.031281c-0.077393,8.553497 0.221252,17.287689 -0.46875,25.84375c-2.0383,3.874695 -3.918091,7.845856 -5.53125,11.9375c-0.153381,-1.844574 -0.306885,-3.681549 -0.59375,-5.5c-1.129425,-6.248871 -2.641663,-12.240234 -4.5625,-17.96875c-0.853821,-8.682892 -1.938385,-17.183777 -3.4375,-25.8125c-1.34259,-7.898483 -2.517517,-15.763031 -3.1875,-23.750046z"/>
   <path id="svg_165" fill="#38a600" fill-rule="evenodd" stroke-width="1.0000000pt" d="m260.992523,317.808502a14.19367,14.19367 0 1 0 -28.387314,0a14.19367,14.19367 0 1 0 28.387314,0z"/>
   <use id="svg_166" y="-82.354691" xlink:href="#path2432" x="23.248543" width="744.09448" height="1052.3622"/>
   <use id="svg_167" y="11.323509" xlink:href="#path2432" x="-27.848663" width="744.09448" height="1052.3622"/>
   <path id="svg_168" fill="#2c8400" fill-rule="evenodd" stroke-width="1.0000000pt" d="m275.186127,246.840149a14.19367,14.19367 0 1 0 -28.387314,0a14.19367,14.19367 0 1 0 28.387314,0z"/>
   <use id="svg_169" y="-2.870163" xlink:href="#path2463" x="-13.654983" width="744.09448" height="1052.3622"/>
   <use id="svg_170" y="70.936904" xlink:href="#path2463" x="-27.848655" width="744.09448" height="1052.3622"/>
   <path id="svg_171" fill="#43c800" fill-rule="evenodd" stroke-width="1.0000000pt" d="m263.831238,266.711304a14.19367,14.19367 0 1 0 -28.387314,0a14.19367,14.19367 0 1 0 28.387314,0z"/>
   <use id="svg_172" y="52.241615" xlink:href="#path2466" x="-53.397254" width="744.09448" height="1052.3622"/>
   <use id="svg_173" y="-0.031422" xlink:href="#path2466" x="-2.300056" width="744.09448" height="1052.3622"/>
   <use id="svg_174" y="48.22705" xlink:href="#path2463" x="-73.268391" width="744.09448" height="1052.3622"/>
   <use id="svg_175" y="-8.547623" xlink:href="#path2432" x="-27.848655" width="744.09448" height="1052.3622"/>
   <use id="svg_176" y="14.162239" xlink:href="#path2466" x="-39.203594" width="744.09448" height="1052.3622"/>
   <use id="svg_177" y="14.162239" xlink:href="#path2463" x="-73.268391" width="744.09448" height="1052.3622"/>
   <use id="svg_178" y="-19.902563" xlink:href="#path2432" x="3.377419" width="744.09448" height="1052.3622"/>
   <use id="svg_179" y="-48.289893" xlink:href="#path2466" x="-39.203594" width="744.09448" height="1052.3622"/>
   <use id="svg_180" y="48.227035" xlink:href="#path2463" x="-33.526123" width="744.09448" height="1052.3622"/>
   <use id="svg_181" y="-45.451152" xlink:href="#path2432" x="-19.332466" width="744.09448" height="1052.3622"/>
   <use id="svg_182" y="-17.063822" xlink:href="#path2432" x="-40.866474" width="744.09448" height="1052.3622"/>
   <path id="svg_183" fill="#47d900" fill-rule="evenodd" stroke-width="1.0000000pt" d="m286.541046,266.711304a14.19367,14.19367 0 1 0 -28.387329,0a14.19367,14.19367 0 1 0 28.387329,0z"/>
   <use id="svg_184" y="-14.225092" xlink:href="#path2479" x="-10.816253" width="744.09448" height="1052.3622"/>
   <use id="svg_185" y="-31.257493" xlink:href="#path2463" x="-27.848655" width="744.09448" height="1052.3622"/>
   <use id="svg_186" y="-5.708882" xlink:href="#path2466" x="-44.881053" width="744.09448" height="1052.3622"/>
   <use id="svg_187" y="-76.677224" xlink:href="#path2432" x="-30.687393" width="744.09448" height="1052.3622"/>
   <use id="svg_188" y="-11.386363" xlink:href="#path2466" x="-22.171196" width="744.09448" height="1052.3622"/>
   <use id="svg_189" y="-36.934959" xlink:href="#path2479" x="-39.203594" width="744.09448" height="1052.3622"/>
  </g>
  <g id="svg_244" transform="matrix(1.42929 0 0 1.42929 -159.947 -161.466)">
   <path id="svg_245" fill="#000000" fill-opacity="0.75" fill-rule="nonzero" stroke-width="1.0000000pt" d="m179.822006,322.269714l-4.53125,0.15625c0.651001,8.033752 1.764557,15.975739 3,23.9375c0.548401,3.496368 1.163849,7.095428 1.6875,10.6875c-4.14151,-7.430145 -9.467896,-14.249817 -16.53125,-20.25c-5.72818,-4.316376 -11.682526,-7.856628 -18.15625,-10.9375l-5.59375,5.4375c5.801605,2.670776 11.150879,5.766602 16.3125,9.53125c6.696991,5.529266 11.784668,11.899902 15.71875,18.875c-7.137207,-3.938324 -15.218414,-6.857971 -22.53125,-9.5625c-4.188629,-1.424622 -8.354431,-2.717499 -12.625,-3.875l-1.8125,3.0625c4.085022,1.100952 8.063782,2.337952 12.0625,3.71875c8.1362,3.065308 16.042511,6.622864 23.5625,11c0.392792,0.228607 3.56543,3.070618 5.875,5.125c1.563263,4.017944 2.819794,8.226807 3.8125,12.5625c-4.124237,-1.578094 -13.204895,-4.866272 -16.71875,-5.71875c-3.568512,-0.730652 -7.066071,-1.262451 -10.6875,-1.65625l-0.8125,3.375c3.308533,0.359528 6.492371,0.850555 9.75,1.53125c6.696686,1.653259 12.89856,4.685791 19.34375,6.75c0.271149,1.450134 0.561005,2.895294 0.78125,4.375c0.56424,4.669098 1.033203,9.630066 1.125,14.59375l-1.15625,4.53125c-4.953003,-2.064819 -8.836243,-3.664917 -11.4375,-4.75c-12.997894,-5.371887 -26.100006,-10.102142 -39.84375,-13.1875l-3,6.15625c10.873657,2.354065 21.229858,6.082031 31.46875,10.28125c-4.573853,0.282043 -9.120239,0.770386 -13.71875,1.875c-1.074738,0.313477 -2.144012,0.624023 -3.21875,0.9375l2.03125,3.15625c0.975647,-0.281067 1.930603,-0.562683 2.90625,-0.84375c6.804749,-1.630219 13.735199,-1.883209 20.6875,-1.75c5.437225,2.026367 10.831818,3.429535 12.6875,8.125c-0.288635,7.420593 0.269836,13.036743 0.59375,20.40625c0.011688,0.590515 0.019592,3.154572 0.03125,5.71875c-4.231537,-3.331268 -12.112213,-8.940399 -14.375,-10.375c-4.666321,-2.78241 -9.360687,-5.411835 -14.1875,-7.90625l-2.9375,2.59375c4.669647,2.440613 9.21698,5.013153 13.71875,7.75c5.484924,3.56781 13.901459,9.302307 17.625,17.25c-1.180786,21.361053 -0.384949,33.660614 -0.75,56.375c-0.177216,9.159302 0.590851,19.250427 -1.15625,28.3125l11.53125,0c-1.74707,-9.062073 -1.010284,-19.153198 -1.1875,-28.3125c-0.387939,-24.139771 -1.743896,-35.975891 0.3125,-60.0625c0.003174,-0.030823 -0.003174,-0.062927 0,-0.09375c4.813446,-7.332703 10.753601,-15.6987 13.75,-19.25c6.444397,-6.936157 16.248291,-14.462341 24.40625,-19.3125l-6.59375,-5c-4.030151,2.427948 -7.806061,5.120087 -11.40625,8.03125c1.702118,-4.040985 3.572693,-8.542206 4.125,-10.15625l-3.5625,0.59375c-1.12619,3.011322 -4.223999,9.62442 -6.65625,15.125c-2.083313,1.942444 -4.239014,3.783936 -6.21875,5.875c-2.818726,3.230835 -3.12149,3.654755 -5.5625,6.53125c1.825836,-12.031311 4.389099,-23.930481 8.75,-35.34375c0.257751,-0.657166 0.573364,-1.285522 0.84375,-1.9375c3.912323,-1.899292 7.690765,-4.324341 11.09375,-6.28125c3.60318,-1.995697 7.236847,-3.82428 11,-5.5l-2.78125,-2.84375c-3.944519,1.737823 -7.774719,3.600067 -11.5625,5.65625c-1.416534,0.79483 -3.33432,2.009827 -5.125,3.125c4.049713,-8.41095 9.073608,-16.378815 14.625,-23.875c7.37561,-0.190918 14.62439,0.176056 21.84375,2l1.8125,-3.21875c-6.986725,-1.777191 -13.839417,-2.14801 -20.84375,-2.4375c4.680786,-5.899078 9.706146,-11.512115 14.71875,-17.125l-8.625,-3.5c-5.692963,6.382782 -11.473083,12.715576 -16.6875,19.5c-3.01004,4.015289 -5.787018,8.162109 -8.4375,12.40625c-0.087006,-5.591339 -0.074951,-11.188995 -0.125,-16.71875c-0.06485,-8.408051 -0.379852,-16.804016 -1.03125,-25.1875l-4.5,0.15625c0.656738,8.327667 0.939453,16.678162 0.875,25.03125c-0.077393,8.553497 0.221252,17.287689 -0.46875,25.84375c-2.0383,3.874695 -3.918091,7.845856 -5.53125,11.9375c-0.153381,-1.844574 -0.306885,-3.681549 -0.59375,-5.5c-1.129425,-6.248871 -2.641663,-12.240234 -4.5625,-17.96875c-0.853821,-8.682892 -1.938385,-17.183777 -3.4375,-25.8125c-1.34259,-7.898438 -2.517517,-15.763031 -3.1875,-23.75z"/>
   <path id="svg_246" fill="#38a600" fill-rule="evenodd" stroke-width="1.0000000pt" d="m152.547073,400.366943a14.19367,14.19367 0 1 0 -28.387329,0a14.19367,14.19367 0 1 0 28.387329,0z"/>
   <use id="svg_247" y="0.203777" xlink:href="#path2432" x="-85.196911" width="744.09448" height="1052.3622"/>
   <use id="svg_248" y="93.881977" xlink:href="#path2432" x="-136.294117" width="744.09448" height="1052.3622"/>
   <path id="svg_249" fill="#2c8400" fill-rule="evenodd" stroke-width="1.0000000pt" d="m166.740677,329.398621a14.19367,14.19367 0 1 0 -28.387329,0a14.19367,14.19367 0 1 0 28.387329,0z"/>
   <use id="svg_250" y="79.688304" xlink:href="#path2463" x="-122.100437" width="744.09448" height="1052.3622"/>
   <use id="svg_251" y="153.495372" xlink:href="#path2463" x="-136.294109" width="744.09448" height="1052.3622"/>
   <path id="svg_252" fill="#43c800" fill-rule="evenodd" stroke-width="1.0000000pt" d="m155.385788,349.269745a14.19367,14.19367 0 1 0 -28.387329,0a14.19367,14.19367 0 1 0 28.387329,0z"/>
   <use id="svg_253" y="134.800083" xlink:href="#path2466" x="-161.842709" width="744.09448" height="1052.3622"/>
   <use id="svg_254" y="82.527046" xlink:href="#path2466" x="-110.74551" width="744.09448" height="1052.3622"/>
   <use id="svg_255" y="130.785518" xlink:href="#path2463" x="-181.713845" width="744.09448" height="1052.3622"/>
   <use id="svg_256" y="74.010845" xlink:href="#path2432" x="-136.294109" width="744.09448" height="1052.3622"/>
   <use id="svg_257" y="96.720706" xlink:href="#path2466" x="-147.649048" width="744.09448" height="1052.3622"/>
   <use id="svg_258" y="96.720706" xlink:href="#path2463" x="-181.713845" width="744.09448" height="1052.3622"/>
   <use id="svg_259" y="62.655905" xlink:href="#path2432" x="-105.068035" width="744.09448" height="1052.3622"/>
   <use id="svg_260" y="34.268575" xlink:href="#path2466" x="-147.649048" width="744.09448" height="1052.3622"/>
   <use id="svg_261" y="130.785503" xlink:href="#path2463" x="-141.971577" width="744.09448" height="1052.3622"/>
   <use id="svg_262" y="37.107316" xlink:href="#path2432" x="-127.77792" width="744.09448" height="1052.3622"/>
   <use id="svg_263" y="65.494646" xlink:href="#path2432" x="-149.311928" width="744.09448" height="1052.3622"/>
   <path id="svg_264" fill="#47d900" fill-rule="evenodd" stroke-width="1.0000000pt" d="m178.095596,349.269745a14.19367,14.19367 0 1 0 -28.387329,0a14.19367,14.19367 0 1 0 28.387329,0z"/>
   <use id="svg_265" y="68.333375" xlink:href="#path2479" x="-119.261707" width="744.09448" height="1052.3622"/>
   <use id="svg_266" y="51.300975" xlink:href="#path2463" x="-136.294109" width="744.09448" height="1052.3622"/>
   <use id="svg_267" y="76.849586" xlink:href="#path2466" x="-153.326508" width="744.09448" height="1052.3622"/>
   <use id="svg_268" y="5.881244" xlink:href="#path2432" x="-139.132847" width="744.09448" height="1052.3622"/>
   <use id="svg_269" y="71.172105" xlink:href="#path2466" x="-130.61665" width="744.09448" height="1052.3622"/>
   <use id="svg_270" y="45.623508" xlink:href="#path2479" x="-147.649048" width="744.09448" height="1052.3622"/>
  </g>
  <g id="svg_28" transform="matrix(1.42929 0 0 1.42929 -159.947 -161.466)">
   <path id="svg_29" fill="#000000" fill-opacity="0.75" fill-rule="nonzero" stroke-width="1.0000000pt" d="m263.779785,271.895081l-4.53125,0.15625c0.651001,8.033752 1.764557,15.975739 3,23.9375c0.548401,3.496368 1.163849,7.095428 1.6875,10.6875c-4.14151,-7.430145 -9.467896,-14.249817 -16.53125,-20.25c-5.72818,-4.316376 -11.682526,-7.856628 -18.15625,-10.9375l-5.59375,5.4375c5.801605,2.670776 11.150879,5.766602 16.3125,9.53125c6.696991,5.529266 11.784668,11.899902 15.71875,18.875c-7.137207,-3.938324 -15.218414,-6.857971 -22.53125,-9.5625c-4.188629,-1.424622 -8.354431,-2.717499 -12.625,-3.875l-1.8125,3.0625c4.085022,1.100952 8.063782,2.337952 12.0625,3.71875c8.1362,3.065308 16.042511,6.622864 23.5625,11c0.392792,0.228607 3.56543,3.070618 5.875,5.125c1.563263,4.017944 2.819794,8.226807 3.8125,12.5625c-4.124237,-1.578094 -13.204895,-4.866272 -16.71875,-5.71875c-3.568512,-0.730652 -7.066071,-1.262451 -10.6875,-1.65625l-0.8125,3.375c3.308533,0.359528 6.492371,0.850555 9.75,1.53125c6.696686,1.653259 12.89856,4.685791 19.34375,6.75c0.271149,1.450134 0.561005,2.895294 0.78125,4.375c0.56424,4.669098 1.033203,9.630066 1.125,14.59375l-1.15625,4.53125c-4.953003,-2.064819 -8.836243,-3.664917 -11.4375,-4.75c-12.997894,-5.371887 -26.100006,-10.102142 -39.84375,-13.1875l-3,6.15625c10.873657,2.354065 21.229858,6.082031 31.46875,10.28125c-4.573853,0.282043 -9.120239,0.770386 -13.71875,1.875c-1.074738,0.313477 -2.144012,0.624023 -3.21875,0.9375l2.03125,3.15625c0.975647,-0.281067 1.930603,-0.562683 2.90625,-0.84375c6.804749,-1.630219 13.735199,-1.883209 20.6875,-1.75c5.437225,2.026367 10.831818,3.429535 12.6875,8.125c-0.288635,7.420593 0.269836,13.036743 0.59375,20.40625c0.011688,0.590515 0.019592,3.154572 0.03125,5.71875c-4.231537,-3.331268 -12.112213,-8.940399 -14.375,-10.375c-4.666321,-2.78241 -9.360687,-5.411835 -14.1875,-7.90625l-2.9375,2.59375c4.669647,2.440613 9.21698,5.013153 13.71875,7.75c5.484924,3.56781 13.901459,9.302307 17.625,17.25c-1.180786,21.361053 -0.384949,33.660614 -0.75,56.375c-0.177216,9.159271 0.590851,19.250427 -1.15625,28.3125l11.53125,0c-1.747101,-9.062073 -1.010284,-19.153229 -1.187531,-28.3125c-0.387909,-24.139771 -1.743866,-35.975891 0.312531,-60.0625c0.003143,-0.030823 -0.003204,-0.062927 0,-0.09375c4.813446,-7.332703 10.753571,-15.6987 13.749969,-19.25c6.444427,-6.936157 16.248291,-14.462341 24.40625,-19.3125l-6.59375,-5c-4.030151,2.427948 -7.80603,5.120087 -11.40625,8.03125c1.702148,-4.040985 3.572693,-8.542206 4.125031,-10.15625l-3.562531,0.59375c-1.12616,3.011322 -4.223969,9.62442 -6.65625,15.125c-2.083313,1.942444 -4.239014,3.783936 -6.21875,5.875c-2.818726,3.230835 -3.12146,3.654755 -5.562469,6.53125c1.825836,-12.031311 4.389069,-23.930481 8.749969,-35.34375c0.257782,-0.657166 0.573364,-1.285522 0.843781,-1.9375c3.912323,-1.899292 7.690735,-4.324341 11.093719,-6.28125c3.60321,-1.995697 7.236877,-3.82428 11,-5.5l-2.781219,-2.84375c-3.94455,1.737823 -7.77475,3.600067 -11.562531,5.65625c-1.416504,0.79483 -3.33429,2.009827 -5.124969,3.125c4.049713,-8.41095 9.073608,-16.378815 14.625,-23.875c7.37558,-0.190918 14.62439,0.176056 21.843719,2l1.8125,-3.21875c-6.986725,-1.777191 -13.839417,-2.14801 -20.84375,-2.4375c4.680786,-5.899078 9.706177,-11.512115 14.718781,-17.125l-8.625031,-3.5c-5.692932,6.382782 -11.473083,12.715576 -16.687469,19.5c-3.01004,4.015289 -5.787018,8.162109 -8.437531,12.40625c-0.087006,-5.591339 -0.074921,-11.188995 -0.125,-16.71875c-0.064819,-8.408051 -0.379852,-16.804016 -1.03125,-25.1875l-4.499969,0.15625c0.656738,8.327667 0.939423,16.678162 0.875,25.03125c-0.077423,8.553497 0.221252,17.287689 -0.46875,25.84375c-2.0383,3.874695 -3.918121,7.845856 -5.53125,11.9375c-0.153412,-1.844574 -0.306915,-3.681549 -0.59375,-5.5c-1.129425,-6.248871 -2.641693,-12.240234 -4.5625,-17.96875c-0.853821,-8.682892 -1.938385,-17.183777 -3.4375,-25.8125c-1.34259,-7.898438 -2.517517,-15.763031 -3.1875,-23.75z"/>
   <path id="svg_30" fill="#38a600" fill-rule="evenodd" stroke-width="1.0000000pt" d="m236.504852,349.99231a14.19367,14.19367 0 1 0 -28.387329,0a14.19367,14.19367 0 1 0 28.387329,0z"/>
   <use id="svg_31" y="-50.170883" xlink:href="#path2432" x="-1.239135" width="744.09448" height="1052.3622"/>
   <use id="svg_32" y="43.507317" xlink:href="#path2432" x="-52.336341" width="744.09448" height="1052.3622"/>
   <path id="svg_33" fill="#2c8400" fill-rule="evenodd" stroke-width="1.0000000pt" d="m250.698456,279.023987a14.19367,14.19367 0 1 0 -28.387329,0a14.19367,14.19367 0 1 0 28.387329,0z"/>
   <use id="svg_34" y="29.313645" xlink:href="#path2463" x="-38.142661" width="744.09448" height="1052.3622"/>
   <use id="svg_35" y="103.120713" xlink:href="#path2463" x="-52.336333" width="744.09448" height="1052.3622"/>
   <path id="svg_36" fill="#43c800" fill-rule="evenodd" stroke-width="1.0000000pt" d="m239.343567,298.895111a14.19367,14.19367 0 1 0 -28.387329,0a14.19367,14.19367 0 1 0 28.387329,0z"/>
   <use id="svg_37" y="84.425423" xlink:href="#path2466" x="-77.884933" width="744.09448" height="1052.3622"/>
   <use id="svg_38" y="32.152386" xlink:href="#path2466" x="-26.787734" width="744.09448" height="1052.3622"/>
   <use id="svg_39" y="80.410858" xlink:href="#path2463" x="-97.756069" width="744.09448" height="1052.3622"/>
   <use id="svg_40" y="23.636185" xlink:href="#path2432" x="-52.336333" width="744.09448" height="1052.3622"/>
   <use id="svg_41" y="46.346047" xlink:href="#path2466" x="-63.691272" width="744.09448" height="1052.3622"/>
   <use id="svg_42" y="46.346047" xlink:href="#path2463" x="-97.756069" width="744.09448" height="1052.3622"/>
   <use id="svg_43" y="12.281245" xlink:href="#path2432" x="-21.110259" width="744.09448" height="1052.3622"/>
   <use id="svg_44" y="-16.106085" xlink:href="#path2466" x="-63.691272" width="744.09448" height="1052.3622"/>
   <use id="svg_45" y="80.410843" xlink:href="#path2463" x="-58.013801" width="744.09448" height="1052.3622"/>
   <use id="svg_46" y="-13.267344" xlink:href="#path2432" x="-43.820144" width="744.09448" height="1052.3622"/>
   <use id="svg_47" y="15.119986" xlink:href="#path2432" x="-65.354152" width="744.09448" height="1052.3622"/>
   <path id="svg_48" fill="#47d900" fill-rule="evenodd" stroke-width="1.0000000pt" d="m262.053375,298.895111a14.19367,14.19367 0 1 0 -28.387329,0a14.19367,14.19367 0 1 0 28.387329,0z"/>
   <use id="svg_49" y="17.958716" xlink:href="#path2479" x="-35.303931" width="744.09448" height="1052.3622"/>
   <use id="svg_50" y="0.926316" xlink:href="#path2463" x="-52.336333" width="744.09448" height="1052.3622"/>
   <use id="svg_51" y="26.474926" xlink:href="#path2466" x="-69.368731" width="744.09448" height="1052.3622"/>
   <use id="svg_52" y="-44.493416" xlink:href="#path2432" x="-55.175071" width="744.09448" height="1052.3622"/>
   <use id="svg_53" y="20.797446" xlink:href="#path2466" x="-46.658874" width="744.09448" height="1052.3622"/>
   <use id="svg_54" y="-4.751151" xlink:href="#path2479" x="-63.691272" width="744.09448" height="1052.3622"/>
  </g>
 </g>
</svg>